<svg width="796" height="272" viewBox="0 0 796 272" fill="none" xmlns="http://www.w3.org/2000/svg">
<g clip-path="url(#clip0_813_1447)">
<path d="M264.726 116.472C249.11 101.02 228.813 93.1809 204.412 93.1809C180.01 93.1809 159.154 101.125 142.84 116.803C135.224 124.189 129.181 133.023 124.866 143.062C120.552 153.119 118.368 164.59 118.368 177.178C118.368 189.766 120.674 201.534 125.198 212.202C129.739 222.869 135.94 232.07 143.626 239.561C151.311 247.051 160.412 252.882 170.665 256.88C180.901 260.878 191.032 262.904 200.796 262.904C210.56 262.904 219.101 261.961 226.473 260.11C241.285 256.322 253.948 249.355 264.149 239.403C280.376 223.341 288.603 202.582 288.603 177.719C288.603 152.857 280.568 132.185 264.726 116.507V116.472ZM194.333 105.839C197.46 105.402 200.796 105.176 204.307 105.176C225.128 105.176 242.472 112.142 255.852 125.9C269.11 139.588 275.817 157.012 275.817 177.702C275.817 199.421 268.656 217.37 254.507 231.058C240.97 244.222 224.062 250.892 204.289 250.892C200.674 250.892 197.32 250.682 194.316 250.246V105.839H194.333Z" fill="#3CB078"/>
<path d="M416.445 211.66C417.651 211.329 418.891 210.997 420.148 210.683C425.808 209.216 431.659 207.697 436.41 204.589C448.253 196.837 457.144 185.698 461.476 173.197C469.056 151.233 461.825 125.219 444.27 111.339C434.332 103.482 421.319 98.8027 403.275 96.6203C386.629 94.6125 369.651 94.9442 353.214 95.2585C343.52 95.4505 333.511 95.6426 323.695 95.3632C322.07 95.3109 320.533 95.9045 319.363 97.0393C318.21 98.1567 317.581 99.6583 317.581 101.265V254.768C317.599 258.032 320.254 260.686 323.52 260.686H373.651C376.917 260.686 379.572 258.032 379.572 254.768L379.607 109.436C379.607 108.196 380.585 107.201 381.825 107.148C393.371 106.712 402.524 107.305 410.646 109.016C422.244 111.461 432.096 116.402 439.153 123.316C450.436 134.368 455.17 151.495 451.187 166.947C447.275 182.154 434.96 195.074 419.799 199.823C411.974 202.285 405.284 202.669 397.668 202.494C395.712 202.459 393.895 203.297 392.865 204.746C390.716 207.784 393.563 210.316 394.769 211.398C394.978 211.59 395.188 211.783 395.38 211.957C396.55 213.109 397.616 214.332 398.734 215.641C399.205 216.182 399.677 216.724 400.148 217.265L439.768 254.226C440.38 254.924 441.008 255.605 441.62 256.286L442.895 257.683C443.07 257.875 443.244 258.084 443.401 258.276C444.135 259.167 445.043 260.284 446.703 260.756C447.227 260.913 447.751 260.983 448.275 260.983C449.497 260.983 450.738 260.581 451.908 259.778C453.55 258.66 454.511 257.124 454.633 255.465C454.755 253.859 454.109 252.288 452.729 250.769L414.664 216.741C413.703 215.676 413.458 214.209 414.035 213.075C414.402 212.359 414.926 212.044 416.48 211.608L416.445 211.66Z" fill="#3CB078"/>
<path d="M717.736 89.6541L650.278 250.368C650.051 250.909 648.427 254.89 649.981 257.963C650.505 259.01 651.64 260.39 653.999 260.931C654.47 261.036 654.994 261.123 655.553 261.123C656.199 261.123 656.916 261.001 657.667 260.651C658.645 260.197 659.536 259.447 660.252 258.504C661.282 257.125 661.894 255.483 662.435 254.034L662.575 253.65C663.378 251.293 664.287 248.989 665.282 246.789L668.112 240.067C673.474 240.259 682.68 240.364 695.535 240.364H726.417L735.919 260.721H799.535L717.771 89.6715L717.736 89.6541ZM720.915 228.369H690.243C685.16 228.369 679.431 228.125 673.178 227.653L695.273 173.11L720.915 228.369Z" fill="#3CB078"/>
<path d="M628.374 233.083C624.933 231.389 620.601 233.921 617.911 235.999C612.13 240.451 606.995 243.733 599.973 245.985C591.693 248.517 584.165 249.774 577.388 249.774C570.61 249.774 565.003 249.32 560.549 248.395L560.497 177.981L560.549 107.55C564.986 106.625 570.61 106.171 577.388 106.171C584.165 106.171 591.693 107.428 599.973 109.959C607.012 112.212 612.147 115.476 617.911 119.946C620.601 122.024 624.951 124.573 628.374 122.862C632.392 120.871 631.204 115.476 629.108 112.491C623.938 105.14 614.558 101.561 606.348 98.9075C596.392 95.695 585.842 94.403 575.396 94.403C560.27 94.403 546.698 97.1092 534.611 102.452C534.209 102.626 533.825 102.801 533.44 102.976C532.986 103.185 532.532 103.395 532.095 103.604C523.816 107.498 516.55 112.456 510.349 118.532C509.091 119.771 507.886 121.063 506.733 122.355C501.161 128.431 496.62 135.363 493.126 143.15C488.602 153.224 486.349 164.258 486.349 176.288C486.349 176.846 486.366 177.405 486.384 177.964C486.384 178.522 486.349 179.064 486.349 179.64C486.349 191.669 488.602 202.704 493.126 212.778C496.62 220.582 501.179 227.496 506.733 233.572C507.903 234.881 509.091 236.156 510.349 237.395C516.55 243.471 523.798 248.43 532.095 252.323C532.549 252.533 532.986 252.742 533.44 252.952C533.825 253.126 534.209 253.301 534.611 253.476C546.68 258.836 560.27 261.524 575.396 261.524C585.842 261.524 596.392 260.232 606.348 257.02C614.558 254.366 623.938 250.787 629.108 243.436C631.221 240.433 632.392 235.056 628.374 233.066V233.083Z" fill="#3CB078"/>
<path d="M6.33402 97.0743H65.3206V248.43H86.9624C90.7004 248.43 94.4209 248.43 98.1588 248.412C101.652 248.412 105.338 248.116 108.29 250.403C109.6 251.415 110.543 253.039 110.386 254.68C110.281 255.693 109.774 256.636 109.146 257.439C106.526 260.704 102.543 260.809 98.7003 260.791H92.0104H74.945H54.7704H34.264H6.28162V97.0743H6.31655H6.33402Z" fill="#3CB078"/>
<path d="M296.398 53.3559C295.14 52.7274 293.551 53.6702 292.573 54.4209C290.459 56.0447 288.573 57.2494 286.005 58.07C282.983 58.9953 280.223 59.4492 277.743 59.4492C275.263 59.4492 273.201 59.2747 271.577 58.9429V33.1903V7.43769C273.201 7.10596 275.263 6.93137 277.743 6.93137C280.223 6.93137 282.983 7.38531 286.005 8.31066C288.573 9.13125 290.459 10.336 292.573 11.9597C293.551 12.7279 295.14 13.6532 296.398 13.0247C297.865 12.2914 297.428 10.3185 296.66 9.23601C294.773 6.54726 291.332 5.23781 288.328 4.26008C284.677 3.0903 280.817 2.6189 277.009 2.6189C271.472 2.6189 266.512 3.61408 262.092 5.56954C261.953 5.63937 261.813 5.69175 261.656 5.76159C261.498 5.83143 261.324 5.91872 261.167 5.98856C258.145 7.42023 255.49 9.21855 253.219 11.4534C252.765 11.9073 252.311 12.3787 251.892 12.8501C249.848 15.0675 248.188 17.5991 246.913 20.4624C245.254 24.1463 244.433 28.1795 244.433 32.5792C244.433 32.7887 244.433 32.9808 244.433 33.1903C244.433 33.3998 244.433 33.5919 244.433 33.8014C244.433 38.2012 245.254 42.2343 246.913 45.9182C248.188 48.7641 249.848 51.2957 251.892 53.5305C252.311 54.0019 252.747 54.4733 253.219 54.9273C255.49 57.1446 258.145 58.9604 261.167 60.3921C261.324 60.4794 261.498 60.5492 261.656 60.619C261.795 60.6889 261.935 60.7412 262.092 60.8111C266.512 62.7665 271.472 63.7617 277.009 63.7617C280.835 63.7617 284.695 63.2903 288.328 62.1205C291.332 61.1603 294.756 59.8508 296.66 57.1446C297.428 56.0447 297.865 54.0718 296.398 53.3559Z" fill="#3CB078"/>
<path d="M340.502 3.47437H361.935V62.9236H340.502V3.47437Z" fill="#3CB078"/>
<path d="M454.004 3.54426C453.934 3.35221 453.812 3.17761 453.69 3.02048C453.27 2.51415 452.676 2.19988 452.013 2.19988C451.314 2.19988 450.353 2.72367 450.021 3.3522C449.794 3.78869 449.864 4.26009 449.864 4.7315C449.864 6.12825 449.829 7.525 449.812 8.92175C449.794 10.9994 449.759 13.0946 449.742 15.1722C449.724 17.5292 449.69 19.8688 449.672 22.2258C449.655 24.4257 449.62 26.6256 449.602 28.808C449.602 30.4317 449.567 32.0555 449.55 33.6792C449.55 34.3077 449.55 34.9188 449.532 35.5473L404.677 0V59.3096C404.677 59.8857 404.554 60.6365 404.764 61.1603C404.834 61.3523 404.956 61.5269 405.096 61.6841C405.515 62.1904 406.109 62.4872 406.773 62.4872C407.471 62.4872 408.432 61.946 408.747 61.3174C408.974 60.8809 408.904 60.4095 408.904 59.9381C408.904 58.5414 408.904 57.1446 408.904 55.7479C408.904 53.6702 408.904 51.5751 408.904 49.4974C408.904 47.1404 408.904 44.8008 408.904 42.4438C408.904 40.2439 408.904 38.044 408.904 35.8616C408.904 34.2379 408.904 32.6142 408.904 30.9904C408.904 30.3619 408.904 29.7159 408.904 29.0874L453.655 64.4601V40.628C453.655 40.628 453.69 40.6455 453.69 40.6629C453.847 26.9399 454.004 12.466 454.004 12.466C454.004 12.0994 454.004 11.7502 454.004 11.3835C454.004 10.0392 454.039 8.71224 454.056 7.36787C454.056 6.72187 454.056 6.07587 454.074 5.41241C454.074 4.83625 454.214 4.0855 454.004 3.54426Z" fill="#3CB078"/>
<path d="M536.414 59.7984H519.715C519.715 59.7984 519.593 59.7984 519.523 59.7984C519.523 59.746 519.541 59.6937 519.558 59.6587V22.2782H533.095C533.095 22.2782 534.562 22.1734 534.562 20.7417C534.562 19.2053 533.095 19.2228 533.095 19.2228H519.558V6.40757H536.414C536.414 6.40757 537.776 6.33773 537.776 4.81877C537.776 3.2998 536.414 3.36964 536.414 3.36964H498.126V62.8189H536.414C536.414 62.8189 537.776 62.8189 537.776 61.3698C537.776 59.9206 536.414 59.781 536.414 59.781V59.7984Z" fill="#3CB078"/>
</g>
<defs>
<clipPath id="clip0_813_1447">
<rect width="795" height="272" fill="white" transform="translate(0.5)"/>
</clipPath>
</defs>
</svg>
