<?xml version="1.0" encoding="UTF-8"?>
<svg xmlns="http://www.w3.org/2000/svg" xmlns:xlink="http://www.w3.org/1999/xlink" width="400px" height="137px" viewBox="0 0 400 137" version="1.1">
<defs>
<clipPath id="clip1">
  <path d="M 326 45 L 399.75 45 L 399.75 132 L 326 132 Z M 326 45 "/>
</clipPath>
</defs>
<g id="surface1">
<path style=" stroke:none;fill-rule:nonzero;fill:rgb(23.529412%,69.01961%,47.058824%);fill-opacity:1;" d="M 133.027344 58.664062 C 125.179688 50.882812 114.980469 46.933594 102.71875 46.933594 C 90.457031 46.933594 79.976562 50.933594 71.777344 58.832031 C 67.953125 62.550781 64.914062 67 62.746094 72.058594 C 60.578125 77.121094 59.480469 82.898438 59.480469 89.242188 C 59.480469 95.582031 60.640625 101.507812 62.914062 106.882812 C 65.195312 112.253906 68.3125 116.886719 72.175781 120.660156 C 76.035156 124.433594 80.609375 127.371094 85.761719 129.382812 C 90.90625 131.398438 95.996094 132.417969 100.902344 132.417969 C 105.808594 132.417969 110.101562 131.945312 113.804688 131.011719 C 121.25 129.101562 127.613281 125.59375 132.738281 120.582031 C 140.890625 112.492188 145.027344 102.035156 145.027344 89.511719 C 145.027344 76.992188 140.988281 66.578125 133.027344 58.683594 Z M 97.65625 53.308594 C 99.226562 53.089844 100.902344 52.976562 102.667969 52.976562 C 113.128906 52.976562 121.84375 56.484375 128.570312 63.414062 C 135.230469 70.308594 138.601562 79.082031 138.601562 89.503906 C 138.601562 100.445312 135.003906 109.484375 127.894531 116.378906 C 121.089844 123.007812 112.59375 126.367188 102.65625 126.367188 C 100.839844 126.367188 99.15625 126.261719 97.644531 126.042969 L 97.644531 53.308594 Z M 97.65625 53.308594 "/>
<path style=" stroke:none;fill-rule:nonzero;fill:rgb(23.529412%,69.01961%,47.058824%);fill-opacity:1;" d="M 209.269531 106.609375 C 209.875 106.441406 210.496094 106.273438 211.128906 106.117188 C 213.972656 105.378906 216.914062 104.613281 219.300781 103.046875 C 225.253906 99.140625 229.71875 93.53125 231.898438 87.234375 C 235.707031 76.171875 232.074219 63.070312 223.25 56.078125 C 218.257812 52.121094 211.71875 49.765625 202.652344 48.664062 C 194.285156 47.652344 185.753906 47.820312 177.496094 47.980469 C 172.625 48.074219 167.59375 48.171875 162.660156 48.03125 C 161.84375 48.003906 161.070312 48.304688 160.484375 48.875 C 159.90625 49.4375 159.589844 50.195312 159.589844 51.003906 L 159.589844 128.320312 C 159.597656 129.964844 160.933594 131.300781 162.574219 131.300781 L 187.765625 131.300781 C 189.40625 131.300781 190.738281 129.964844 190.738281 128.320312 L 190.757812 55.121094 C 190.757812 54.496094 191.25 53.996094 191.871094 53.96875 C 197.675781 53.75 202.273438 54.046875 206.355469 54.910156 C 212.183594 56.140625 217.132812 58.628906 220.679688 62.113281 C 226.351562 67.679688 228.730469 76.304688 226.726562 84.085938 C 224.761719 91.746094 218.574219 98.253906 210.953125 100.644531 C 207.023438 101.886719 203.660156 102.078125 199.832031 101.992188 C 198.851562 101.972656 197.9375 102.394531 197.417969 103.125 C 196.339844 104.65625 197.769531 105.929688 198.375 106.476562 C 198.480469 106.574219 198.585938 106.671875 198.683594 106.757812 C 199.269531 107.339844 199.808594 107.953125 200.367188 108.613281 C 200.605469 108.886719 200.84375 109.160156 201.078125 109.429688 L 220.988281 128.046875 C 221.296875 128.398438 221.613281 128.742188 221.917969 129.085938 L 222.558594 129.789062 C 222.648438 129.886719 222.734375 129.992188 222.816406 130.085938 C 223.183594 130.535156 223.640625 131.097656 224.472656 131.335938 C 224.738281 131.414062 225 131.449219 225.265625 131.449219 C 225.878906 131.449219 226.5 131.25 227.089844 130.84375 C 227.914062 130.28125 228.398438 129.507812 228.457031 128.671875 C 228.519531 127.863281 228.195312 127.070312 227.503906 126.304688 L 208.375 109.167969 C 207.890625 108.632812 207.769531 107.890625 208.058594 107.320312 C 208.242188 106.960938 208.503906 106.800781 209.285156 106.582031 Z M 209.269531 106.609375 "/>
<g clip-path="url(#clip1)" clip-rule="nonzero">
<path style=" stroke:none;fill-rule:nonzero;fill:rgb(23.529412%,69.01961%,47.058824%);fill-opacity:1;" d="M 360.671875 45.15625 L 326.773438 126.105469 C 326.660156 126.378906 325.84375 128.382812 326.625 129.929688 C 326.886719 130.457031 327.457031 131.152344 328.644531 131.425781 C 328.878906 131.476562 329.144531 131.523438 329.421875 131.523438 C 329.75 131.523438 330.109375 131.460938 330.484375 131.285156 C 330.976562 131.054688 331.425781 130.675781 331.785156 130.203125 C 332.300781 129.507812 332.609375 128.679688 332.882812 127.949219 L 332.953125 127.757812 C 333.355469 126.570312 333.8125 125.410156 334.3125 124.300781 L 335.734375 120.917969 C 338.429688 121.011719 343.054688 121.066406 349.515625 121.066406 L 365.035156 121.066406 L 369.808594 131.320312 L 401.777344 131.320312 L 360.6875 45.164062 Z M 362.269531 115.023438 L 346.855469 115.023438 C 344.300781 115.023438 341.421875 114.902344 338.28125 114.664062 L 349.382812 87.191406 Z M 362.269531 115.023438 "/>
</g>
<path style=" stroke:none;fill-rule:nonzero;fill:rgb(23.529412%,69.01961%,47.058824%);fill-opacity:1;" d="M 315.765625 117.398438 C 314.035156 116.546875 311.859375 117.820312 310.507812 118.867188 C 307.601562 121.109375 305.023438 122.761719 301.492188 123.898438 C 297.332031 125.171875 293.550781 125.804688 290.144531 125.804688 C 286.738281 125.804688 283.921875 125.578125 281.683594 125.109375 L 281.65625 89.644531 L 281.683594 54.171875 C 283.914062 53.703125 286.738281 53.476562 290.144531 53.476562 C 293.550781 53.476562 297.332031 54.109375 301.492188 55.382812 C 305.03125 56.519531 307.613281 58.164062 310.507812 60.414062 C 311.859375 61.460938 314.046875 62.746094 315.765625 61.882812 C 317.785156 60.878906 317.1875 58.164062 316.132812 56.660156 C 313.535156 52.957031 308.824219 51.152344 304.699219 49.816406 C 299.695312 48.199219 294.394531 47.546875 289.144531 47.546875 C 281.542969 47.546875 274.722656 48.910156 268.648438 51.601562 C 268.445312 51.691406 268.253906 51.777344 268.058594 51.867188 C 267.832031 51.972656 267.605469 52.078125 267.382812 52.183594 C 263.222656 54.144531 259.574219 56.640625 256.457031 59.703125 C 255.824219 60.324219 255.21875 60.976562 254.640625 61.628906 C 251.839844 64.6875 249.558594 68.179688 247.800781 72.101562 C 245.527344 77.175781 244.394531 82.734375 244.394531 88.792969 C 244.394531 89.074219 244.40625 89.355469 244.414062 89.636719 C 244.414062 89.917969 244.394531 90.191406 244.394531 90.480469 C 244.394531 96.539062 245.527344 102.097656 247.800781 107.171875 C 249.558594 111.101562 251.847656 114.585938 254.640625 117.644531 C 255.226562 118.304688 255.824219 118.945312 256.457031 119.570312 C 259.574219 122.628906 263.214844 125.128906 267.382812 127.089844 C 267.613281 127.195312 267.832031 127.300781 268.058594 127.40625 C 268.253906 127.492188 268.445312 127.582031 268.648438 127.667969 C 274.714844 130.371094 281.542969 131.722656 289.144531 131.722656 C 294.394531 131.722656 299.695312 131.074219 304.699219 129.453125 C 308.824219 128.117188 313.535156 126.316406 316.132812 122.613281 C 317.195312 121.101562 317.785156 118.390625 315.765625 117.390625 Z M 315.765625 117.398438 "/>
<path style=" stroke:none;fill-rule:nonzero;fill:rgb(23.529412%,69.01961%,47.058824%);fill-opacity:1;" d="M 3.183594 48.894531 L 32.824219 48.894531 L 32.824219 125.128906 L 43.699219 125.128906 C 45.578125 125.128906 47.449219 125.128906 49.324219 125.121094 C 51.082031 125.121094 52.933594 124.96875 54.417969 126.121094 C 55.074219 126.632812 55.550781 127.449219 55.46875 128.277344 C 55.417969 128.785156 55.164062 129.261719 54.847656 129.664062 C 53.53125 131.308594 51.527344 131.363281 49.597656 131.355469 L 3.15625 131.355469 L 3.15625 48.894531 Z M 3.183594 48.894531 "/>
<path style=" stroke:none;fill-rule:nonzero;fill:rgb(23.529412%,69.01961%,47.058824%);fill-opacity:1;" d="M 148.945312 26.875 C 148.3125 26.558594 147.511719 27.03125 147.023438 27.410156 C 145.960938 28.226562 145.011719 28.835938 143.722656 29.25 C 142.203125 29.714844 140.816406 29.941406 139.570312 29.941406 C 138.324219 29.941406 137.285156 29.855469 136.472656 29.6875 L 136.472656 3.746094 C 137.285156 3.578125 138.324219 3.492188 139.570312 3.492188 C 140.816406 3.492188 142.203125 3.71875 143.722656 4.1875 C 145.011719 4.597656 145.960938 5.207031 147.023438 6.023438 C 147.511719 6.410156 148.3125 6.875 148.945312 6.558594 C 149.679688 6.191406 149.460938 5.195312 149.074219 4.652344 C 148.128906 3.296875 146.398438 2.636719 144.886719 2.144531 C 143.054688 1.554688 141.113281 1.320312 139.199219 1.320312 C 136.417969 1.320312 133.925781 1.820312 131.703125 2.804688 C 131.632812 2.839844 131.5625 2.867188 131.484375 2.902344 C 131.40625 2.9375 131.320312 2.980469 131.238281 3.015625 C 129.722656 3.738281 128.386719 4.644531 127.246094 5.769531 C 127.019531 5.996094 126.789062 6.234375 126.578125 6.472656 C 125.550781 7.589844 124.71875 8.863281 124.078125 10.304688 C 123.242188 12.160156 122.832031 14.191406 122.832031 16.410156 C 122.832031 16.515625 122.832031 16.613281 122.832031 16.71875 C 122.832031 16.824219 122.832031 16.917969 122.832031 17.023438 C 122.832031 19.242188 123.242188 21.273438 124.078125 23.128906 C 124.71875 24.5625 125.550781 25.835938 126.578125 26.960938 C 126.789062 27.199219 127.007812 27.4375 127.246094 27.664062 C 128.386719 28.78125 129.722656 29.695312 131.238281 30.417969 C 131.320312 30.460938 131.40625 30.496094 131.484375 30.53125 C 131.554688 30.566406 131.625 30.59375 131.703125 30.628906 C 133.925781 31.613281 136.417969 32.117188 139.199219 32.117188 C 141.125 32.117188 143.0625 31.878906 144.886719 31.289062 C 146.398438 30.804688 148.117188 30.144531 149.074219 28.78125 C 149.460938 28.226562 149.679688 27.234375 148.945312 26.875 Z M 148.945312 26.875 "/>
<path style=" stroke:none;fill-rule:nonzero;fill:rgb(23.529412%,69.01961%,47.058824%);fill-opacity:1;" d="M 171.105469 1.75 L 181.875 1.75 L 181.875 31.691406 L 171.105469 31.691406 Z M 171.105469 1.75 "/>
<path style=" stroke:none;fill-rule:nonzero;fill:rgb(23.529412%,69.01961%,47.058824%);fill-opacity:1;" d="M 228.144531 1.785156 C 228.109375 1.6875 228.046875 1.601562 227.984375 1.519531 C 227.773438 1.265625 227.476562 1.109375 227.140625 1.109375 C 226.789062 1.109375 226.308594 1.371094 226.140625 1.6875 C 226.027344 1.910156 226.0625 2.144531 226.0625 2.382812 C 226.0625 3.085938 226.042969 3.789062 226.035156 4.492188 C 226.027344 5.539062 226.007812 6.59375 226 7.640625 C 225.992188 8.828125 225.976562 10.007812 225.964844 11.195312 C 225.957031 12.300781 225.941406 13.410156 225.929688 14.511719 C 225.929688 15.328125 225.914062 16.144531 225.90625 16.964844 C 225.90625 17.28125 225.90625 17.585938 225.894531 17.90625 L 203.355469 0 L 203.355469 29.871094 C 203.355469 30.164062 203.292969 30.542969 203.398438 30.804688 C 203.433594 30.902344 203.496094 30.988281 203.566406 31.070312 C 203.777344 31.324219 204.074219 31.472656 204.410156 31.472656 C 204.757812 31.472656 205.242188 31.199219 205.402344 30.882812 C 205.515625 30.664062 205.480469 30.425781 205.480469 30.1875 C 205.480469 29.484375 205.480469 28.78125 205.480469 28.078125 C 205.480469 27.03125 205.480469 25.976562 205.480469 24.929688 C 205.480469 23.742188 205.480469 22.566406 205.480469 21.378906 C 205.480469 20.269531 205.480469 19.160156 205.480469 18.0625 C 205.480469 17.246094 205.480469 16.425781 205.480469 15.609375 C 205.480469 15.292969 205.480469 14.96875 205.480469 14.652344 L 227.96875 32.46875 L 227.96875 20.464844 C 227.96875 20.464844 227.984375 20.472656 227.984375 20.480469 C 228.0625 13.570312 228.144531 6.277344 228.144531 6.277344 C 228.144531 6.09375 228.144531 5.917969 228.144531 5.734375 C 228.144531 5.054688 228.160156 4.386719 228.167969 3.710938 C 228.167969 3.386719 228.167969 3.058594 228.179688 2.726562 C 228.179688 2.4375 228.25 2.058594 228.144531 1.785156 Z M 228.144531 1.785156 "/>
<path style=" stroke:none;fill-rule:nonzero;fill:rgb(23.529412%,69.01961%,47.058824%);fill-opacity:1;" d="M 269.554688 30.117188 L 261.164062 30.117188 C 261.164062 30.117188 261.101562 30.117188 261.066406 30.117188 C 261.066406 30.09375 261.074219 30.066406 261.085938 30.046875 L 261.085938 11.222656 L 267.886719 11.222656 C 267.886719 11.222656 268.625 11.167969 268.625 10.445312 C 268.625 9.671875 267.886719 9.683594 267.886719 9.683594 L 261.085938 9.683594 L 261.085938 3.226562 L 269.554688 3.226562 C 269.554688 3.226562 270.238281 3.191406 270.238281 2.425781 C 270.238281 1.660156 269.554688 1.695312 269.554688 1.695312 L 250.316406 1.695312 L 250.316406 31.640625 L 269.554688 31.640625 C 269.554688 31.640625 270.238281 31.640625 270.238281 30.910156 C 270.238281 30.179688 269.554688 30.109375 269.554688 30.109375 Z M 269.554688 30.117188 "/>
</g>
</svg>
