<svg width="153" height="24" viewBox="0 0 153 24" fill="none" xmlns="http://www.w3.org/2000/svg">
<path d="M14.072 0.50708L17.0188 8.53764L26.5547 8.53764L18.84 13.5008L21.7867 21.5314L14.072 16.5682L6.35735 21.5314L9.3041 13.5008L1.58941 8.53764L11.1253 8.53764L14.072 0.50708Z" fill="white"/>
<path d="M45.4026 0.50708L48.3494 8.53764L57.8852 8.53764L50.1705 13.5008L53.1173 21.5314L45.4026 16.5682L37.6879 21.5314L40.6347 13.5008L32.92 8.53764L42.4559 8.53764L45.4026 0.50708Z" fill="white"/>
<path d="M76.7332 0.50708L79.6799 8.53764L89.2158 8.53764L81.5011 13.5008L84.4479 21.5314L76.7332 16.5682L69.0185 21.5314L71.9652 13.5008L64.2505 8.53764L73.7864 8.53764L76.7332 0.50708Z" fill="white"/>
<path d="M108.064 0.50708L111.011 8.53764L120.547 8.53764L112.832 13.5008L115.779 21.5314L108.064 16.5682L100.349 21.5314L103.296 13.5008L95.5813 8.53764L105.117 8.53764L108.064 0.50708Z" fill="white"/>
<path d="M139.395 1.95853L141.872 8.70988L141.992 9.03764H142.341L150.176 9.03764L143.892 13.0803L143.555 13.297L143.693 13.673L146.126 20.3046L139.665 16.1477L139.395 15.9737L139.124 16.1477L132.663 20.3046L135.096 13.673L135.234 13.297L134.897 13.0803L128.613 9.03764L136.448 9.03764H136.797L136.917 8.70988L139.395 1.95853Z" stroke="white"/>
</svg>
