<?xml version="1.0" encoding="UTF-8"?>
<svg id="Capa_1" xmlns="http://www.w3.org/2000/svg" viewBox="0 0 38.21 38.15">
  <defs>
    <style>
      .cls-1 {
        fill: #fff;
      }
    </style>
  </defs>
  <polygon class="cls-1" points="19.41 17.61 14.23 10.1 11.53 10.1 17.89 19.4 18.7 20.6 23.79 28.04 26.6 28.04 20.23 18.8 19.41 17.61"/>
  <path class="cls-1" d="M19.07,0h0C11.17,0,4.39,4.8,1.5,11.65c-.97,2.28-1.5,4.79-1.5,7.42,0,10.53,8.54,19.07,19.07,19.07h0c7.9,0,14.68-4.8,17.57-11.65.97-2.28,1.5-4.79,1.5-7.42C38.15,8.54,29.61,0,19.07,0ZM23.11,29.34l-5.28-7.72-6.56,7.72h-1.85l7.6-8.92-7.94-11.62h5.84l5.37,7.79,6.63-7.79h1.82l-7.63,8.98,7.98,11.56h-5.97Z"/>
</svg>