<?xml version="1.0" encoding="UTF-8"?>
<svg xmlns="http://www.w3.org/2000/svg" xmlns:xlink="http://www.w3.org/1999/xlink" width="30px" height="px" viewBox="0 0 30 30" version="1.1">
<g id="surface1">
<path style=" stroke:none;fill-rule:nonzero;fill:rgb(100%,100%,100%);fill-opacity:1;" d="M 15.027344 11.25 C 12.960938 11.25 11.273438 12.929688 11.273438 15.003906 C 11.273438 17.078125 12.953125 18.757812 15.027344 18.757812 C 17.101562 18.757812 18.78125 17.078125 18.78125 15.003906 C 18.78125 12.929688 17.101562 11.25 15.027344 11.25 Z M 15.027344 11.25 "/>
<path style=" stroke:none;fill-rule:nonzero;fill:rgb(100%,100%,100%);fill-opacity:1;" d="M 20.089844 6.109375 L 9.957031 6.109375 C 7.84375 6.109375 6.132812 7.828125 6.132812 9.933594 L 6.132812 20.066406 C 6.132812 22.179688 7.851562 23.890625 9.957031 23.890625 L 20.089844 23.890625 C 22.203125 23.890625 23.914062 22.171875 23.914062 20.066406 L 23.914062 9.933594 C 23.914062 7.820312 22.195312 6.109375 20.089844 6.109375 Z M 15.027344 20.28125 C 12.113281 20.28125 9.75 17.910156 9.75 15.003906 C 9.75 12.097656 12.121094 9.726562 15.027344 9.726562 C 17.933594 9.726562 20.304688 12.097656 20.304688 15.003906 C 20.304688 17.910156 17.933594 20.28125 15.027344 20.28125 Z M 20.949219 10.664062 C 20.296875 10.664062 19.769531 10.136719 19.769531 9.484375 C 19.769531 8.832031 20.296875 8.308594 20.949219 8.308594 C 21.597656 8.308594 22.125 8.832031 22.125 9.484375 C 22.125 10.136719 21.597656 10.664062 20.949219 10.664062 Z M 20.949219 10.664062 "/>
<path style=" stroke:none;fill-rule:nonzero;fill:rgb(100%,100%,100%);fill-opacity:1;" d="M 15.027344 0.0234375 C 6.761719 0.0234375 0.0546875 6.730469 0.0546875 14.996094 C 0.0546875 23.261719 6.761719 29.96875 15.027344 29.96875 C 23.296875 29.96875 30 23.261719 30 14.996094 C 30 6.730469 23.296875 0.0234375 15.027344 0.0234375 Z M 25.445312 20.066406 C 25.445312 23.019531 23.042969 25.421875 20.089844 25.421875 L 9.957031 25.421875 C 7.003906 25.421875 4.601562 23.019531 4.601562 20.066406 L 4.601562 9.933594 C 4.601562 6.980469 7.003906 4.578125 9.957031 4.578125 L 20.089844 4.578125 C 23.042969 4.578125 25.445312 6.980469 25.445312 9.933594 Z M 25.445312 20.066406 "/>
</g>
</svg>
