<?xml version="1.0" encoding="UTF-8"?>
<svg id="Capa_1" xmlns="http://www.w3.org/2000/svg" viewBox="0 0 38.21 38.15">
  <defs>
    <style>
      .cls-1 {
        fill: #fff;
      }
    </style>
  </defs>
  <path class="cls-1" d="M19.14,14.3c-2.63,0-4.78,2.14-4.78,4.78s2.14,4.78,4.78,4.78,4.78-2.14,4.78-4.78-2.14-4.78-4.78-4.78Z"/>
  <path class="cls-1" d="M25.59,7.75h-12.91c-2.69,0-4.87,2.19-4.87,4.87v12.91c0,2.69,2.19,4.87,4.87,4.87h12.91c2.69,0,4.87-2.19,4.87-4.87v-12.91c0-2.69-2.19-4.87-4.87-4.87ZM19.14,25.8c-3.71,0-6.72-3.02-6.72-6.72s3.02-6.72,6.72-6.72,6.72,3.02,6.72,6.72-3.02,6.72-6.72,6.72ZM26.68,13.55c-.83,0-1.5-.67-1.5-1.5s.67-1.5,1.5-1.5,1.5.67,1.5,1.5-.67,1.5-1.5,1.5Z"/>
  <path class="cls-1" d="M19.14,0C8.61,0,.07,8.54.07,19.07s8.54,19.07,19.07,19.07,19.07-8.54,19.07-19.07S29.67,0,19.14,0ZM32.41,25.53c0,3.76-3.06,6.82-6.82,6.82h-12.91c-3.76,0-6.82-3.06-6.82-6.82v-12.91c0-3.76,3.06-6.82,6.82-6.82h12.91c3.76,0,6.82,3.06,6.82,6.82v12.91Z"/>
</svg>