<?xml version="1.0" encoding="UTF-8"?>
<svg id="Capa_1" xmlns="http://www.w3.org/2000/svg" viewBox="0 0 38.28 38.15">
  <defs>
    <style>
      .cls-1 {
        fill: #fff;
      }
    </style>
  </defs>
  <path class="cls-1" d="M19.14,0C8.57,0,0,8.57,0,19.14c0,9.38,6.75,17.19,15.66,18.82,0-4.93,0-9.86,0-14.79h-3.74v-5.67h3.71c0-.69-.03-1.32,0-1.94.04-.79.04-1.6.21-2.37.58-2.54,2.34-4.01,5.07-4.18,1.62-.1,3.25-.02,4.87-.02.05,0,.09.03.19.07,0,1.41,0,2.82,0,4.24,0,.17-.02.33-.03.55-.96,0-1.88,0-2.81,0-1.2,0-1.58.38-1.59,1.58,0,.66,0,1.32,0,2.04h4.5c-.18,1.93-.35,3.79-.52,5.7h-4.19c.01,4.99.02,9.98.04,14.96-.02,0-.04,0-.06.01,9.53-1.09,16.94-9.19,16.94-19.01C38.27,8.57,29.7,0,19.14,0Z"/>
</svg>