<?xml version="1.0" encoding="UTF-8"?>
<svg xmlns="http://www.w3.org/2000/svg" xmlns:xlink="http://www.w3.org/1999/xlink" width="110px" height="36px" viewBox="0 0 108 36" version="1.1">
<g id="surface1">
<path style=" stroke:none;fill-rule:nonzero;fill:rgb(100%,100%,100%);fill-opacity:1;" d="M 35.292969 15.96875 C 33.179688 13.871094 30.429688 12.804688 27.125 12.804688 C 23.824219 12.804688 21 13.882812 18.792969 16.011719 C 17.761719 17.015625 16.941406 18.214844 16.359375 19.574219 C 15.773438 20.941406 15.476562 22.496094 15.476562 24.207031 C 15.476562 25.914062 15.789062 27.511719 16.402344 28.960938 C 17.015625 30.40625 17.855469 31.65625 18.898438 32.671875 C 19.9375 33.6875 21.171875 34.480469 22.558594 35.023438 C 23.945312 35.566406 25.316406 35.839844 26.636719 35.839844 C 27.960938 35.839844 29.117188 35.710938 30.113281 35.460938 C 32.117188 34.945312 33.832031 34 35.214844 32.652344 C 37.410156 30.472656 38.523438 27.652344 38.523438 24.28125 C 38.523438 20.90625 37.4375 18.097656 35.292969 15.972656 Z M 25.761719 14.523438 C 26.1875 14.464844 26.636719 14.433594 27.113281 14.433594 C 29.929688 14.433594 32.28125 15.378906 34.089844 17.246094 C 35.886719 19.105469 36.792969 21.46875 36.792969 24.277344 C 36.792969 27.226562 35.824219 29.660156 33.910156 31.519531 C 32.078125 33.304688 29.789062 34.210938 27.109375 34.210938 C 26.621094 34.210938 26.167969 34.183594 25.761719 34.121094 Z M 25.761719 14.523438 "/>
<path style=" stroke:none;fill-rule:nonzero;fill:rgb(100%,100%,100%);fill-opacity:1;" d="M 55.832031 28.886719 C 55.996094 28.839844 56.164062 28.796875 56.335938 28.753906 C 57.101562 28.554688 57.890625 28.347656 58.535156 27.925781 C 60.140625 26.875 61.34375 25.363281 61.929688 23.664062 C 62.957031 20.683594 61.976562 17.152344 59.601562 15.269531 C 58.253906 14.203125 56.492188 13.570312 54.050781 13.273438 C 51.796875 13 49.496094 13.046875 47.273438 13.089844 C 45.960938 13.113281 44.605469 13.140625 43.277344 13.101562 C 43.054688 13.09375 42.847656 13.175781 42.6875 13.328125 C 42.535156 13.480469 42.449219 13.683594 42.449219 13.902344 L 42.449219 34.734375 C 42.449219 35.179688 42.808594 35.539062 43.253906 35.539062 L 50.039062 35.539062 C 50.480469 35.539062 50.839844 35.179688 50.839844 34.734375 L 50.84375 15.011719 C 50.84375 14.84375 50.976562 14.707031 51.144531 14.703125 C 52.707031 14.640625 53.949219 14.722656 55.046875 14.957031 C 56.617188 15.285156 57.953125 15.957031 58.90625 16.894531 C 60.433594 18.394531 61.074219 20.71875 60.535156 22.816406 C 60.007812 24.882812 58.339844 26.632812 56.285156 27.277344 C 55.226562 27.613281 54.320312 27.664062 53.289062 27.640625 C 53.027344 27.636719 52.78125 27.75 52.640625 27.949219 C 52.347656 28.359375 52.734375 28.703125 52.898438 28.851562 C 52.925781 28.875 52.953125 28.902344 52.980469 28.925781 C 53.140625 29.082031 53.285156 29.25 53.433594 29.425781 C 53.5 29.5 53.5625 29.574219 53.625 29.648438 L 58.992188 34.664062 C 59.074219 34.757812 59.160156 34.851562 59.242188 34.941406 L 59.414062 35.132812 C 59.4375 35.15625 59.460938 35.1875 59.480469 35.210938 C 59.582031 35.332031 59.703125 35.484375 59.929688 35.550781 C 60 35.570312 60.070312 35.578125 60.140625 35.578125 C 60.308594 35.578125 60.476562 35.523438 60.632812 35.417969 C 60.855469 35.265625 60.984375 35.054688 61.003906 34.832031 C 61.019531 34.613281 60.933594 34.398438 60.746094 34.195312 L 55.589844 29.574219 C 55.460938 29.429688 55.429688 29.230469 55.507812 29.078125 C 55.554688 28.980469 55.628906 28.9375 55.835938 28.878906 Z M 55.832031 28.886719 "/>
<path style=" stroke:none;fill-rule:nonzero;fill:rgb(100%,100%,100%);fill-opacity:1;" d="M 96.621094 12.328125 L 87.488281 34.140625 C 87.457031 34.210938 87.238281 34.753906 87.449219 35.171875 C 87.519531 35.3125 87.675781 35.5 87.992188 35.574219 C 88.058594 35.585938 88.128906 35.597656 88.203125 35.597656 C 88.292969 35.597656 88.386719 35.582031 88.488281 35.535156 C 88.621094 35.472656 88.742188 35.371094 88.839844 35.242188 C 88.980469 35.054688 89.0625 34.832031 89.136719 34.636719 L 89.15625 34.585938 C 89.261719 34.265625 89.386719 33.953125 89.519531 33.652344 L 89.902344 32.742188 C 90.628906 32.765625 91.875 32.78125 93.617188 32.78125 L 97.796875 32.78125 L 99.082031 35.542969 L 107.695312 35.542969 L 96.628906 12.328125 Z M 97.050781 31.152344 L 92.898438 31.152344 C 92.210938 31.152344 91.4375 31.121094 90.589844 31.054688 L 93.582031 23.652344 Z M 97.050781 31.152344 "/>
<path style=" stroke:none;fill-rule:nonzero;fill:rgb(100%,100%,100%);fill-opacity:1;" d="M 84.523438 31.792969 C 84.058594 31.5625 83.472656 31.90625 83.109375 32.1875 C 82.324219 32.792969 81.628906 33.238281 80.679688 33.542969 C 79.558594 33.886719 78.539062 34.058594 77.621094 34.058594 C 76.703125 34.058594 75.945312 33.996094 75.34375 33.871094 L 75.335938 24.316406 L 75.34375 14.757812 C 75.941406 14.628906 76.703125 14.570312 77.621094 14.570312 C 78.539062 14.570312 79.558594 14.738281 80.679688 15.082031 C 81.632812 15.390625 82.328125 15.832031 83.109375 16.4375 C 83.472656 16.71875 84.0625 17.066406 84.523438 16.835938 C 85.066406 16.5625 84.90625 15.832031 84.625 15.425781 C 83.925781 14.429688 82.652344 13.941406 81.542969 13.582031 C 80.195312 13.148438 78.765625 12.972656 77.351562 12.972656 C 75.304688 12.972656 73.464844 13.339844 71.832031 14.0625 C 71.777344 14.085938 71.722656 14.113281 71.671875 14.136719 C 71.609375 14.164062 71.546875 14.191406 71.488281 14.21875 C 70.367188 14.75 69.386719 15.421875 68.546875 16.246094 C 68.375 16.414062 68.210938 16.589844 68.054688 16.765625 C 67.300781 17.589844 66.6875 18.53125 66.214844 19.585938 C 65.601562 20.953125 65.296875 22.453125 65.296875 24.085938 C 65.296875 24.160156 65.296875 24.238281 65.300781 24.3125 C 65.300781 24.386719 65.296875 24.460938 65.296875 24.539062 C 65.296875 26.171875 65.601562 27.671875 66.214844 29.039062 C 66.6875 30.097656 67.304688 31.035156 68.054688 31.859375 C 68.214844 32.039062 68.375 32.210938 68.546875 32.378906 C 69.386719 33.203125 70.367188 33.875 71.488281 34.40625 C 71.550781 34.433594 71.609375 34.460938 71.671875 34.488281 C 71.722656 34.511719 71.777344 34.539062 71.832031 34.5625 C 73.464844 35.289062 75.304688 35.652344 77.351562 35.652344 C 78.765625 35.652344 80.195312 35.476562 81.542969 35.042969 C 82.652344 34.683594 83.925781 34.195312 84.625 33.199219 C 84.910156 32.789062 85.066406 32.0625 84.523438 31.789062 Z M 84.523438 31.792969 "/>
<path style=" stroke:none;fill-rule:nonzero;fill:rgb(100%,100%,100%);fill-opacity:1;" d="M 0.308594 13.335938 L 8.296875 13.335938 L 8.296875 33.875 L 11.226562 33.875 C 11.730469 33.875 12.234375 33.875 12.742188 33.875 C 13.214844 33.875 13.714844 33.832031 14.113281 34.144531 C 14.289062 34.28125 14.417969 34.5 14.398438 34.722656 C 14.382812 34.863281 14.316406 34.988281 14.230469 35.097656 C 13.875 35.542969 13.335938 35.554688 12.816406 35.554688 L 0.304688 35.554688 L 0.304688 13.335938 Z M 0.308594 13.335938 "/>
<path style=" stroke:none;fill-rule:nonzero;fill:rgb(100%,100%,100%);fill-opacity:1;" d="M 39.582031 7.402344 C 39.410156 7.316406 39.195312 7.445312 39.0625 7.546875 C 38.777344 7.765625 38.519531 7.929688 38.171875 8.039062 C 37.765625 8.167969 37.390625 8.226562 37.054688 8.226562 C 36.71875 8.226562 36.441406 8.203125 36.21875 8.160156 L 36.21875 1.167969 C 36.441406 1.125 36.71875 1.101562 37.054688 1.101562 C 37.390625 1.101562 37.765625 1.160156 38.171875 1.289062 C 38.519531 1.398438 38.777344 1.5625 39.0625 1.78125 C 39.195312 1.886719 39.410156 2.011719 39.582031 1.925781 C 39.777344 1.828125 39.71875 1.558594 39.617188 1.414062 C 39.359375 1.046875 38.894531 0.871094 38.488281 0.738281 C 37.992188 0.578125 37.472656 0.515625 36.957031 0.515625 C 36.207031 0.515625 35.535156 0.648438 34.9375 0.914062 C 34.917969 0.925781 34.898438 0.933594 34.875 0.941406 C 34.855469 0.949219 34.832031 0.960938 34.808594 0.972656 C 34.402344 1.167969 34.042969 1.410156 33.734375 1.714844 C 33.671875 1.777344 33.613281 1.839844 33.554688 1.902344 C 33.277344 2.203125 33.054688 2.546875 32.882812 2.9375 C 32.65625 3.4375 32.546875 3.984375 32.546875 4.582031 C 32.546875 4.609375 32.546875 4.636719 32.546875 4.664062 C 32.546875 4.691406 32.546875 4.71875 32.546875 4.746094 C 32.546875 5.34375 32.65625 5.890625 32.882812 6.390625 C 33.054688 6.777344 33.277344 7.121094 33.554688 7.425781 C 33.613281 7.488281 33.671875 7.550781 33.734375 7.613281 C 34.042969 7.914062 34.402344 8.160156 34.808594 8.355469 C 34.832031 8.367188 34.855469 8.378906 34.875 8.386719 C 34.894531 8.394531 34.914062 8.402344 34.9375 8.414062 C 35.535156 8.679688 36.207031 8.8125 36.957031 8.8125 C 37.472656 8.8125 37.996094 8.75 38.488281 8.589844 C 38.894531 8.460938 39.359375 8.28125 39.617188 7.914062 C 39.71875 7.765625 39.777344 7.496094 39.582031 7.402344 Z M 39.582031 7.402344 "/>
<path style=" stroke:none;fill-rule:nonzero;fill:rgb(100%,100%,100%);fill-opacity:1;" d="M 45.550781 0.632812 L 48.453125 0.632812 L 48.453125 8.699219 L 45.550781 8.699219 Z M 45.550781 0.632812 "/>
<path style=" stroke:none;fill-rule:nonzero;fill:rgb(100%,100%,100%);fill-opacity:1;" d="M 60.917969 0.640625 C 60.910156 0.613281 60.890625 0.589844 60.875 0.570312 C 60.816406 0.5 60.738281 0.457031 60.648438 0.457031 C 60.554688 0.457031 60.421875 0.527344 60.378906 0.613281 C 60.347656 0.671875 60.355469 0.738281 60.355469 0.800781 C 60.355469 0.992188 60.351562 1.179688 60.351562 1.371094 C 60.347656 1.652344 60.34375 1.9375 60.339844 2.21875 C 60.339844 2.539062 60.332031 2.855469 60.332031 3.175781 C 60.328125 3.472656 60.324219 3.773438 60.320312 4.070312 C 60.320312 4.289062 60.316406 4.511719 60.316406 4.730469 C 60.316406 4.816406 60.316406 4.898438 60.3125 4.984375 L 54.238281 0.160156 L 54.238281 8.207031 C 54.238281 8.285156 54.222656 8.390625 54.25 8.460938 C 54.261719 8.484375 54.277344 8.511719 54.296875 8.53125 C 54.351562 8.601562 54.433594 8.640625 54.523438 8.640625 C 54.617188 8.640625 54.746094 8.566406 54.789062 8.480469 C 54.820312 8.421875 54.8125 8.359375 54.8125 8.292969 C 54.8125 8.105469 54.8125 7.914062 54.8125 7.726562 C 54.8125 7.445312 54.8125 7.160156 54.8125 6.878906 C 54.8125 6.558594 54.8125 6.238281 54.8125 5.917969 C 54.8125 5.621094 54.8125 5.324219 54.8125 5.027344 C 54.8125 4.804688 54.8125 4.585938 54.8125 4.367188 C 54.8125 4.28125 54.8125 4.191406 54.8125 4.105469 L 60.871094 8.90625 L 60.871094 5.671875 C 60.871094 5.671875 60.875 5.675781 60.875 5.679688 C 60.894531 3.816406 60.917969 1.851562 60.917969 1.851562 C 60.917969 1.800781 60.917969 1.753906 60.917969 1.703125 C 60.917969 1.523438 60.921875 1.34375 60.925781 1.160156 C 60.925781 1.070312 60.925781 0.984375 60.925781 0.894531 C 60.925781 0.816406 60.945312 0.714844 60.917969 0.640625 Z M 60.917969 0.640625 "/>
<path style=" stroke:none;fill-rule:nonzero;fill:rgb(100%,100%,100%);fill-opacity:1;" d="M 72.074219 8.273438 L 69.8125 8.273438 C 69.8125 8.273438 69.796875 8.273438 69.789062 8.273438 C 69.789062 8.269531 69.789062 8.261719 69.792969 8.257812 L 69.792969 3.183594 L 71.625 3.183594 C 71.625 3.183594 71.824219 3.167969 71.824219 2.972656 C 71.824219 2.765625 71.625 2.769531 71.625 2.769531 L 69.792969 2.769531 L 69.792969 1.027344 L 72.074219 1.027344 C 72.074219 1.027344 72.257812 1.019531 72.257812 0.8125 C 72.257812 0.605469 72.074219 0.617188 72.074219 0.617188 L 66.890625 0.617188 L 66.890625 8.683594 L 72.074219 8.683594 C 72.074219 8.683594 72.257812 8.683594 72.257812 8.488281 C 72.257812 8.292969 72.074219 8.273438 72.074219 8.273438 Z M 72.074219 8.273438 "/>
</g>
</svg>
