<?xml version="1.0" encoding="UTF-8"?>
<svg xmlns="http://www.w3.org/2000/svg" xmlns:xlink="http://www.w3.org/1999/xlink" width="30px" height="px" viewBox="0 0 30 30" version="1.1">
<g id="surface1">
<path style=" stroke:none;fill-rule:nonzero;fill:rgb(100%,100%,100%);fill-opacity:1;" d="M 15 0.0507812 C 6.714844 0.0507812 0 6.765625 0 15.050781 C 0 22.402344 5.289062 28.523438 12.273438 29.800781 C 12.273438 25.9375 12.273438 22.074219 12.273438 18.210938 L 9.339844 18.210938 L 9.339844 13.765625 L 12.25 13.765625 C 12.25 13.226562 12.226562 12.730469 12.25 12.246094 C 12.28125 11.625 12.28125 10.992188 12.414062 10.386719 C 12.867188 8.398438 14.246094 7.246094 16.386719 7.113281 C 17.65625 7.035156 18.933594 7.097656 20.203125 7.097656 C 20.242188 7.097656 20.273438 7.121094 20.351562 7.152344 C 20.351562 8.257812 20.351562 9.359375 20.351562 10.472656 C 20.351562 10.605469 20.335938 10.734375 20.328125 10.90625 C 19.578125 10.90625 18.855469 10.90625 18.128906 10.90625 C 17.1875 10.90625 16.890625 11.203125 16.882812 12.144531 C 16.882812 12.660156 16.882812 13.179688 16.882812 13.742188 L 20.40625 13.742188 C 20.265625 15.253906 20.132812 16.710938 20 18.210938 L 16.714844 18.210938 C 16.722656 22.121094 16.730469 26.03125 16.746094 29.933594 C 16.730469 29.933594 16.714844 29.933594 16.699219 29.941406 C 24.167969 29.085938 29.976562 22.738281 29.976562 15.042969 C 29.992188 6.765625 23.277344 0.0507812 15 0.0507812 Z M 15 0.0507812 "/>
</g>
</svg>
