<svg width="178" height="59" viewBox="0 0 178 59" fill="none" xmlns="http://www.w3.org/2000/svg">
<path d="M58.167 26.1681C54.6826 22.7312 50.1538 20.9875 44.709 20.9875C39.2642 20.9875 34.6106 22.7545 30.9704 26.2419C29.2711 27.8846 27.9225 29.8496 26.9599 32.0826C25.9972 34.3195 25.51 36.8709 25.51 39.6709C25.51 42.4709 26.0245 45.0883 27.0339 47.4611C28.0473 49.8339 29.4309 51.8805 31.1458 53.5465C32.8607 55.2125 34.8912 56.5096 37.1791 57.3989C39.463 58.2882 41.7235 58.7387 43.9022 58.7387C46.0809 58.7387 47.9868 58.529 49.6315 58.1173C52.9365 57.2746 55.7622 55.7251 58.0383 53.5116C61.6591 49.9388 63.4948 45.3213 63.4948 39.7913C63.4948 34.2612 61.702 29.6632 58.167 26.1759V26.1681ZM42.4601 23.8031C43.1578 23.706 43.9022 23.6555 44.6856 23.6555C49.3314 23.6555 53.2016 25.205 56.187 28.2652C59.1452 31.3098 60.6419 35.1855 60.6419 39.7874C60.6419 44.6184 59.0439 48.6106 55.8869 51.6553C52.8664 54.5834 49.0936 56.0669 44.6817 56.0669C43.8749 56.0669 43.1266 56.0203 42.4562 55.9232V23.8031H42.4601Z" fill="white"/>
<path d="M92.0207 47.3407C92.2896 47.2669 92.5663 47.1931 92.8469 47.1232C94.1097 46.797 95.4154 46.4591 96.4755 45.7679C99.118 44.0436 101.102 41.5659 102.068 38.7854C103.76 33.9 102.146 28.1136 98.2293 25.0263C96.0117 23.2787 93.1081 22.238 89.082 21.7525C85.3677 21.3059 81.5793 21.3797 77.9118 21.4496C75.7487 21.4923 73.5154 21.535 71.3251 21.4729C70.9626 21.4613 70.6196 21.5933 70.3585 21.8457C70.1012 22.0943 69.9609 22.4282 69.9609 22.7855V56.9289C69.9648 57.6551 70.5572 58.2454 71.2861 58.2454H82.4718C83.2007 58.2454 83.7931 57.6551 83.7931 56.9289L83.8009 24.603C83.8009 24.3273 84.0191 24.1059 84.2959 24.0942C86.8721 23.9972 88.9144 24.1292 90.7267 24.5098C93.3146 25.0535 95.5128 26.1525 97.0874 27.6903C99.6051 30.1486 100.661 33.9582 99.7727 37.3951C98.8997 40.7776 96.152 43.6514 92.769 44.7077C91.0229 45.2552 89.5302 45.3407 87.8309 45.3018C87.3944 45.2941 86.989 45.4805 86.7591 45.8028C86.2797 46.4785 86.915 47.0416 87.1839 47.2824C87.2307 47.3251 87.2774 47.3678 87.3203 47.4067C87.5814 47.663 87.8192 47.9348 88.0686 48.2261C88.1738 48.3465 88.2791 48.4669 88.3843 48.5873L97.2248 56.8084C97.3612 56.9638 97.5015 57.1152 97.6379 57.2667L97.9224 57.5773C97.9614 57.6201 98.0004 57.6667 98.0354 57.7094C98.1991 57.9074 98.4018 58.156 98.7721 58.2608C98.889 58.2958 99.0059 58.3113 99.1228 58.3113C99.3957 58.3113 99.6724 58.222 99.9335 58.0434C100.3 57.7948 100.514 57.4531 100.542 57.0841C100.569 56.7269 100.425 56.3773 100.117 56.0395L91.6231 48.4707C91.4088 48.2339 91.3542 47.9076 91.4828 47.6552C91.5647 47.496 91.6816 47.4261 92.0285 47.329L92.0207 47.3407Z" fill="white"/>
<path d="M159.248 20.203L144.196 55.9503C144.145 56.0707 143.783 56.9561 144.13 57.6396C144.247 57.8726 144.5 58.1794 145.026 58.2998C145.131 58.3231 145.248 58.3425 145.373 58.3425C145.517 58.3425 145.677 58.3153 145.845 58.2376C146.063 58.1367 146.262 57.9697 146.421 57.76C146.651 57.4532 146.788 57.0881 146.909 56.7658L146.94 56.6804C147.119 56.1561 147.322 55.6435 147.544 55.1542L148.175 53.659C149.372 53.7018 151.426 53.7251 154.294 53.7251H161.185L163.305 58.2532H177.5L159.256 20.2069L159.248 20.203ZM159.957 51.0571H153.113C151.979 51.0571 150.701 51.0028 149.306 50.8979L154.236 38.766L159.957 51.0571Z" fill="white"/>
<path d="M139.309 52.1056C138.541 51.7289 137.574 52.292 136.974 52.7542C135.684 53.7444 134.538 54.4745 132.971 54.9755C131.124 55.5386 129.444 55.8182 127.932 55.8182C126.42 55.8182 125.169 55.7173 124.175 55.5114L124.163 39.8494L124.175 24.1835C125.165 23.9777 126.42 23.8767 127.932 23.8767C129.444 23.8767 131.124 24.1563 132.971 24.7194C134.542 25.2204 135.688 25.9466 136.974 26.9408C137.574 27.4029 138.545 27.9699 139.309 27.5893C140.205 27.1466 139.94 25.9466 139.472 25.2825C138.319 23.6476 136.226 22.8515 134.394 22.2612C132.172 21.5467 129.818 21.2593 127.488 21.2593C124.112 21.2593 121.084 21.8612 118.387 23.0496C118.297 23.0884 118.212 23.1272 118.126 23.1661C118.024 23.2127 117.923 23.2593 117.826 23.3059C115.978 24.1719 114.357 25.2748 112.973 26.6262C112.693 26.9019 112.424 27.1893 112.167 27.4767C110.923 28.8281 109.91 30.3699 109.13 32.1019C108.121 34.3427 107.618 36.797 107.618 39.4727C107.618 39.597 107.622 39.7213 107.626 39.8455C107.626 39.9698 107.618 40.0902 107.618 40.2183C107.618 42.8941 108.121 45.3484 109.13 47.5892C109.91 49.3251 110.927 50.8629 112.167 52.2144C112.428 52.5056 112.693 52.7891 112.973 53.0648C114.357 54.4163 115.974 55.5192 117.826 56.3852C117.927 56.4318 118.024 56.4784 118.126 56.525C118.212 56.5639 118.297 56.6027 118.387 56.6415C121.08 57.8337 124.112 58.4318 127.488 58.4318C129.818 58.4318 132.172 58.1444 134.394 57.4299C136.226 56.8396 138.319 56.0435 139.472 54.4085C139.944 53.7406 140.205 52.5445 139.309 52.1017V52.1056Z" fill="white"/>
<path d="M0.511692 21.8536H13.6735V55.5194H18.5024C19.3365 55.5194 20.1667 55.5194 21.0007 55.5155C21.7802 55.5155 22.6026 55.4495 23.2613 55.9582C23.5536 56.1835 23.764 56.5446 23.729 56.9097C23.7056 57.1349 23.5925 57.3446 23.4522 57.5233C22.8676 58.2495 21.979 58.2728 21.1215 58.2689H19.6288H15.821H11.3194H6.74376H0.5V21.8536H0.507795H0.511692Z" fill="white"/>
<path d="M65.2342 12.1292C64.9535 11.9894 64.5989 12.1991 64.3806 12.3661C63.909 12.7273 63.4881 12.9952 62.9152 13.1778C62.2409 13.3836 61.6251 13.4845 61.0716 13.4845C60.5182 13.4845 60.0583 13.4457 59.6958 13.3719V7.64382V1.91571C60.0583 1.84192 60.5182 1.80309 61.0716 1.80309C61.6251 1.80309 62.2409 1.90406 62.9152 2.10988C63.4881 2.2924 63.909 2.56036 64.3806 2.92153C64.5989 3.0924 64.9535 3.29822 65.2342 3.15842C65.5615 2.99531 65.4641 2.55648 65.2926 2.3157C64.8717 1.71765 64.1039 1.42639 63.4335 1.20892C62.6189 0.948726 61.7576 0.843872 60.908 0.843872C59.6725 0.843872 58.5656 1.06523 57.5795 1.50018C57.5483 1.51571 57.5171 1.52736 57.4821 1.5429C57.447 1.55843 57.408 1.57785 57.3729 1.59338C56.6987 1.91182 56.1063 2.31182 55.5996 2.8089C55.4983 2.90987 55.3969 3.01473 55.3034 3.11958C54.8474 3.61278 54.4771 4.17588 54.1926 4.81277C53.8223 5.63218 53.6392 6.52926 53.6392 7.5079C53.6392 7.5545 53.6392 7.59722 53.6392 7.64382C53.6392 7.69042 53.6392 7.73314 53.6392 7.77974C53.6392 8.75837 53.8223 9.65545 54.1926 10.4749C54.4771 11.1079 54.8474 11.671 55.3034 12.1681C55.3969 12.2729 55.4944 12.3778 55.5996 12.4787C56.1063 12.9719 56.6987 13.3758 57.3729 13.6943C57.408 13.7137 57.447 13.7292 57.4821 13.7447C57.5133 13.7603 57.5444 13.7719 57.5795 13.7875C58.5656 14.2224 59.6725 14.4438 60.908 14.4438C61.7615 14.4438 62.6228 14.3389 63.4335 14.0787C64.1039 13.8651 64.8678 13.5739 65.2926 12.9719C65.4641 12.7273 65.5615 12.2884 65.2342 12.1292Z" fill="white"/>
<path d="M75.0754 1.03418H79.8576V14.2574H75.0754V1.03418Z" fill="white"/>
<path d="M100.401 1.0497C100.386 1.00698 100.358 0.968143 100.331 0.933192C100.237 0.820571 100.105 0.750669 99.9568 0.750669C99.8009 0.750669 99.5865 0.867173 99.5125 1.00698C99.4618 1.10406 99.4774 1.20892 99.4774 1.31377C99.4774 1.62445 99.4696 1.93513 99.4657 2.2458C99.4618 2.70793 99.454 3.17395 99.4501 3.63608C99.4462 4.16035 99.4384 4.68073 99.4345 5.205C99.4306 5.69432 99.4228 6.18363 99.4189 6.66907C99.4189 7.03023 99.4111 7.39139 99.4072 7.75255C99.4072 7.89236 99.4072 8.02828 99.4033 8.16808L89.3946 0.261353V13.4535C89.3946 13.5816 89.3673 13.7486 89.4141 13.8651C89.4297 13.9078 89.457 13.9467 89.4882 13.9816C89.5817 14.0942 89.7142 14.1603 89.8623 14.1603C90.0182 14.1603 90.2326 14.0399 90.3027 13.9001C90.3534 13.803 90.3378 13.6981 90.3378 13.5933C90.3378 13.2826 90.3378 12.9719 90.3378 12.6613C90.3378 12.1991 90.3378 11.7331 90.3378 11.271C90.3378 10.7467 90.3378 10.2263 90.3378 9.70205C90.3378 9.21274 90.3378 8.72342 90.3378 8.23799C90.3378 7.87682 90.3378 7.51566 90.3378 7.1545C90.3378 7.0147 90.3378 6.87101 90.3378 6.7312L100.323 14.5991V9.29817C100.323 9.29817 100.331 9.30206 100.331 9.30594C100.366 6.25354 100.401 3.03415 100.401 3.03415C100.401 2.95259 100.401 2.87492 100.401 2.79337C100.401 2.49434 100.409 2.1992 100.413 1.90017C100.413 1.75649 100.413 1.6128 100.417 1.46523C100.417 1.33707 100.448 1.17008 100.401 1.0497Z" fill="white"/>
<path d="M118.789 13.5621H115.063C115.063 13.5621 115.036 13.5621 115.021 13.5621C115.021 13.5504 115.024 13.5388 115.028 13.531V5.21652H118.049C118.049 5.21652 118.376 5.19322 118.376 4.87478C118.376 4.53303 118.049 4.53692 118.049 4.53692H115.028V1.68645H118.789C118.789 1.68645 119.093 1.67092 119.093 1.33306C119.093 0.995196 118.789 1.01073 118.789 1.01073H110.246V14.2339H118.789C118.789 14.2339 119.093 14.2339 119.093 13.9116C119.093 13.5893 118.789 13.5582 118.789 13.5582V13.5621Z" fill="white"/>
</svg>
