<?xml version="1.0" encoding="UTF-8"?>
<svg xmlns="http://www.w3.org/2000/svg" xmlns:xlink="http://www.w3.org/1999/xlink" width="30px" height="px" viewBox="0 0 30 30" version="1.1">
<g id="surface1">
<path style=" stroke:none;fill-rule:nonzero;fill:rgb(100%,100%,100%);fill-opacity:1;" d="M 15.238281 13.851562 L 11.171875 7.953125 L 9.050781 7.953125 L 14.046875 15.253906 L 14.683594 16.199219 L 18.679688 22.039062 L 20.882812 22.039062 L 15.882812 14.785156 Z M 15.238281 13.851562 "/>
<path style=" stroke:none;fill-rule:nonzero;fill:rgb(100%,100%,100%);fill-opacity:1;" d="M 14.972656 0.0234375 C 8.769531 0.0234375 3.445312 3.792969 1.175781 9.171875 C 0.417969 10.960938 0 12.929688 0 14.996094 C 0 23.261719 6.703125 29.96875 14.972656 29.96875 C 21.175781 29.96875 26.5 26.199219 28.765625 20.820312 C 29.527344 19.03125 29.945312 17.0625 29.945312 14.996094 C 29.953125 6.730469 23.246094 0.0234375 14.972656 0.0234375 Z M 18.144531 23.058594 L 14 17 L 8.847656 23.058594 L 7.394531 23.058594 L 13.363281 16.054688 L 7.128906 6.933594 L 11.714844 6.933594 L 15.929688 13.050781 L 21.136719 6.933594 L 22.566406 6.933594 L 16.574219 13.984375 L 22.839844 23.058594 Z M 18.144531 23.058594 "/>
</g>
</svg>
