<svg width="139" height="34" viewBox="0 0 139 34" fill="none" xmlns="http://www.w3.org/2000/svg">
<path d="M0.00924824 1.02026H10.4197V30.5665H14.2392C14.8989 30.5665 15.5556 30.5665 16.2153 30.5631C16.8318 30.5631 17.4823 30.5052 18.0033 30.9517C18.2345 31.1493 18.4009 31.4663 18.3732 31.7867C18.3547 31.9844 18.2653 32.1684 18.1543 32.3252C17.6919 32.9625 16.989 32.983 16.3108 32.9796H15.1301H12.1183H8.55771H4.93857H0V1.02026H0.00616549H0.00924824Z" fill="#3CB078"/>
<path d="M47.2066 4.98071C44.4506 1.96439 40.8684 0.434082 36.5618 0.434082C32.2552 0.434082 28.5744 1.98484 25.6952 5.04547C24.3511 6.48716 23.2844 8.21175 22.523 10.1715C21.7616 12.1347 21.3762 14.3739 21.3762 16.8313C21.3762 19.2886 21.7831 21.5858 22.5816 23.6682C23.3831 25.7507 24.4775 27.5468 25.8339 29.009C27.1903 30.4711 28.7964 31.6095 30.606 32.39C32.4125 33.1705 34.2005 33.5658 35.9237 33.5658C37.647 33.5658 39.1544 33.3818 40.4554 33.0205C43.0695 32.2809 45.3045 30.921 47.1049 28.9783C49.9687 25.8427 51.4207 21.7903 51.4207 16.9369C51.4207 12.0835 50.0026 8.04815 47.2066 4.98753V4.98071ZM34.7831 2.90507C35.3349 2.81987 35.9237 2.77556 36.5434 2.77556C40.218 2.77556 43.2792 4.13546 45.6405 6.82117C47.9804 9.49325 49.1641 12.8947 49.1641 16.9335C49.1641 21.1734 47.9002 24.6771 45.4032 27.3492C43.014 29.919 40.0299 31.2209 36.5403 31.2209C35.9021 31.2209 35.3103 31.1801 34.78 31.0948V2.90507H34.7831Z" fill="#3CB078"/>
<path d="M71.8691 23.5704C72.0818 23.5056 72.3007 23.4409 72.5226 23.3795C73.5214 23.0932 74.5542 22.7967 75.3927 22.19C77.4828 20.6768 79.0519 18.5023 79.8164 16.062C81.1543 11.7744 79.8781 6.69605 76.7799 3.98648C75.0258 2.45276 72.7292 1.53934 69.5447 1.11331C66.6068 0.721358 63.6104 0.786115 60.7095 0.847464C58.9986 0.884955 57.2322 0.922445 55.4997 0.867913C55.213 0.857688 54.9417 0.97357 54.7352 1.19511C54.5317 1.41324 54.4207 1.70635 54.4207 2.01991V31.9854C54.4238 32.6227 54.8924 33.1408 55.4688 33.1408H64.3163C64.8928 33.1408 65.3614 32.6227 65.3614 31.9854L65.3676 3.61498C65.3676 3.37299 65.5402 3.17872 65.7591 3.16849C67.7968 3.08329 69.4121 3.19917 70.8456 3.53318C72.8926 4.01033 74.6312 4.97487 75.8767 6.32455C77.8681 8.48198 78.7035 11.8255 78.0007 14.8418C77.3101 17.8104 75.1368 20.3325 72.461 21.2596C71.0799 21.7401 69.8992 21.8151 68.5551 21.781C68.2099 21.7742 67.8893 21.9378 67.7074 22.2207C67.3282 22.8137 67.8307 23.3079 68.0434 23.5192C68.0804 23.5567 68.1174 23.5942 68.1513 23.6283C68.3578 23.8533 68.5459 24.0918 68.7432 24.3475C68.8264 24.4531 68.9096 24.5588 68.9929 24.6644L75.9853 31.8796C76.0932 32.0159 76.2042 32.1489 76.3121 32.2818L76.5371 32.5544C76.568 32.5919 76.5988 32.6328 76.6265 32.6703C76.756 32.8442 76.9163 33.0623 77.2092 33.1543C77.3017 33.185 77.3941 33.1986 77.4866 33.1986C77.7024 33.1986 77.9213 33.1202 78.1278 32.9634C78.4176 32.7453 78.5872 32.4454 78.6087 32.1216C78.6303 31.808 78.5163 31.5013 78.2727 31.2048L71.5546 24.5622C71.3851 24.3543 71.3419 24.068 71.4437 23.8464C71.5084 23.7067 71.6009 23.6454 71.8752 23.5601L71.8691 23.5704Z" fill="#3CB078"/>
<path d="M108.41 27.7598C107.803 27.4292 107.038 27.9234 106.563 28.329C105.543 29.1981 104.637 29.8389 103.397 30.2786C101.936 30.7728 100.607 31.0181 99.4114 31.0181C98.2152 31.0181 97.2257 30.9295 96.4396 30.7489L96.4303 17.0034L96.4396 3.25441C97.2226 3.07377 98.2152 2.98516 99.4114 2.98516C100.607 2.98516 101.936 3.23055 103.397 3.72475C104.64 4.16442 105.546 4.80176 106.563 5.67428C107.038 6.07986 107.806 6.57747 108.41 6.24346C109.119 5.85492 108.909 4.80177 108.539 4.21895C107.627 2.78407 105.971 2.08538 104.523 1.56732C102.765 0.940201 100.903 0.687988 99.0599 0.687988C96.3903 0.687988 93.995 1.21627 91.8617 2.2592C91.7908 2.29328 91.723 2.32736 91.6552 2.36145C91.575 2.40235 91.4948 2.44325 91.4178 2.48414C89.9566 3.24419 88.6741 4.21213 87.5798 5.39821C87.3578 5.6402 87.1451 5.89241 86.9416 6.14462C85.9582 7.3307 85.1567 8.68378 84.5402 10.2039C83.7417 12.1704 83.3441 14.3245 83.3441 16.6728C83.3441 16.7818 83.3471 16.8909 83.3502 16.9999C83.3502 17.109 83.3441 17.2147 83.3441 17.3271C83.3441 19.6754 83.7417 21.8295 84.5402 23.796C85.1567 25.3195 85.9613 26.6692 86.9416 27.8553C87.1482 28.1109 87.3578 28.3597 87.5798 28.6017C88.6741 29.7878 89.9535 30.7557 91.4178 31.5158C91.4979 31.5567 91.575 31.5976 91.6552 31.6385C91.723 31.6725 91.7908 31.7066 91.8617 31.7407C93.9919 32.787 96.3903 33.3119 99.0599 33.3119C100.903 33.3119 102.765 33.0597 104.523 32.4326C105.971 31.9145 107.627 31.2158 108.539 29.7809C108.912 29.1947 109.119 28.145 108.41 27.7564V27.7598Z" fill="#3CB078"/>
<path d="M123.956 0.263672L112.051 31.6368C112.011 31.7424 111.724 32.5195 111.998 33.1194C112.091 33.3239 112.291 33.5931 112.707 33.6988C112.791 33.7192 112.883 33.7363 112.982 33.7363C113.096 33.7363 113.222 33.7124 113.355 33.6442C113.527 33.5556 113.685 33.4091 113.811 33.225C113.993 32.9558 114.101 32.6354 114.196 32.3525L114.221 32.2775C114.363 31.8174 114.523 31.3675 114.699 30.9381L115.198 29.6259C116.145 29.6634 117.769 29.6838 120.038 29.6838H125.489L127.166 33.6579H138.393L123.963 0.267081L123.956 0.263672ZM124.517 27.3423H119.104C118.207 27.3423 117.196 27.2946 116.092 27.2026L119.992 16.5552L124.517 27.3423Z" fill="#3CB078"/>
</svg>
