<?xml version="1.0" encoding="UTF-8"?>
<svg xmlns="http://www.w3.org/2000/svg" xmlns:xlink="http://www.w3.org/1999/xlink" width="130px" height="32px" viewBox="0 0 130 32" version="1.1">
<g id="surface1">
<path style=" stroke:none;fill-rule:nonzero;fill:rgb(23.529412%,69.01961%,47.058824%);fill-opacity:1;" d="M 0.0078125 0.960938 L 9.746094 0.960938 L 9.746094 28.769531 L 13.316406 28.769531 C 13.933594 28.769531 14.546875 28.769531 15.164062 28.765625 C 15.742188 28.765625 16.351562 28.710938 16.835938 29.132812 C 17.054688 29.316406 17.210938 29.617188 17.183594 29.917969 C 17.167969 30.101562 17.082031 30.277344 16.980469 30.421875 C 16.546875 31.023438 15.890625 31.042969 15.253906 31.039062 L 0 31.039062 L 0 0.960938 Z M 0.0078125 0.960938 "/>
<path style=" stroke:none;fill-rule:nonzero;fill:rgb(23.529412%,69.01961%,47.058824%);fill-opacity:1;" d="M 44.148438 4.6875 C 41.574219 1.847656 38.222656 0.410156 34.195312 0.410156 C 30.167969 0.410156 26.722656 1.867188 24.03125 4.75 C 22.773438 6.105469 21.777344 7.730469 21.066406 9.574219 C 20.351562 11.421875 19.992188 13.527344 19.992188 15.839844 C 19.992188 18.152344 20.371094 20.316406 21.121094 22.277344 C 21.867188 24.234375 22.894531 25.925781 24.160156 27.300781 C 25.429688 28.679688 26.933594 29.75 28.625 30.484375 C 30.3125 31.21875 31.984375 31.589844 33.597656 31.589844 C 35.210938 31.589844 36.621094 31.417969 37.835938 31.078125 C 40.28125 30.382812 42.371094 29.101562 44.054688 27.273438 C 46.734375 24.324219 48.089844 20.507812 48.089844 15.941406 C 48.089844 11.371094 46.765625 7.574219 44.148438 4.695312 Z M 32.53125 2.734375 C 33.046875 2.652344 33.597656 2.613281 34.175781 2.613281 C 37.613281 2.613281 40.476562 3.890625 42.683594 6.421875 C 44.875 8.933594 45.980469 12.136719 45.980469 15.9375 C 45.980469 19.929688 44.796875 23.226562 42.464844 25.742188 C 40.230469 28.160156 37.4375 29.382812 34.175781 29.382812 C 33.578125 29.382812 33.023438 29.347656 32.527344 29.265625 L 32.527344 2.734375 Z M 32.53125 2.734375 "/>
<path style=" stroke:none;fill-rule:nonzero;fill:rgb(23.529412%,69.01961%,47.058824%);fill-opacity:1;" d="M 67.214844 22.183594 C 67.414062 22.121094 67.621094 22.0625 67.828125 22.003906 C 68.761719 21.734375 69.726562 21.457031 70.511719 20.882812 C 72.464844 19.460938 73.933594 17.414062 74.648438 15.117188 C 75.898438 11.082031 74.707031 6.300781 71.808594 3.753906 C 70.167969 2.308594 68.019531 1.449219 65.042969 1.046875 C 62.292969 0.679688 59.492188 0.738281 56.777344 0.796875 C 55.179688 0.832031 53.527344 0.867188 51.90625 0.816406 C 51.636719 0.808594 51.382812 0.917969 51.191406 1.125 C 51 1.332031 50.898438 1.605469 50.898438 1.902344 L 50.898438 30.105469 C 50.898438 30.703125 51.339844 31.191406 51.878906 31.191406 L 60.152344 31.191406 C 60.691406 31.191406 61.128906 30.703125 61.128906 30.105469 L 61.136719 3.402344 C 61.136719 3.175781 61.296875 2.992188 61.5 2.980469 C 63.40625 2.902344 64.917969 3.011719 66.257812 3.324219 C 68.171875 3.773438 69.800781 4.683594 70.964844 5.953125 C 72.828125 7.984375 73.609375 11.128906 72.949219 13.96875 C 72.304688 16.761719 70.273438 19.136719 67.769531 20.007812 C 66.476562 20.460938 65.375 20.53125 64.117188 20.5 C 63.792969 20.492188 63.492188 20.648438 63.324219 20.914062 C 62.96875 21.472656 63.4375 21.9375 63.636719 22.136719 C 63.671875 22.171875 63.707031 22.207031 63.738281 22.238281 C 63.933594 22.449219 64.109375 22.675781 64.292969 22.914062 C 64.371094 23.015625 64.449219 23.113281 64.527344 23.214844 L 71.066406 30.003906 C 71.167969 30.132812 71.269531 30.257812 71.371094 30.382812 L 71.582031 30.640625 C 71.609375 30.675781 71.640625 30.714844 71.664062 30.75 C 71.785156 30.914062 71.9375 31.117188 72.210938 31.203125 C 72.296875 31.234375 72.382812 31.246094 72.46875 31.246094 C 72.671875 31.246094 72.875 31.171875 73.070312 31.023438 C 73.339844 30.820312 73.5 30.535156 73.519531 30.230469 C 73.539062 29.9375 73.433594 29.648438 73.203125 29.371094 L 66.921875 23.117188 C 66.761719 22.921875 66.722656 22.652344 66.816406 22.445312 C 66.878906 22.3125 66.964844 22.253906 67.222656 22.175781 Z M 67.214844 22.183594 "/>
<path style=" stroke:none;fill-rule:nonzero;fill:rgb(23.529412%,69.01961%,47.058824%);fill-opacity:1;" d="M 101.390625 26.125 C 100.824219 25.816406 100.109375 26.28125 99.664062 26.664062 C 98.710938 27.480469 97.863281 28.082031 96.703125 28.496094 C 95.335938 28.960938 94.09375 29.195312 92.976562 29.195312 C 91.855469 29.195312 90.929688 29.109375 90.195312 28.941406 L 90.1875 16.003906 L 90.195312 3.0625 C 90.925781 2.894531 91.855469 2.808594 92.976562 2.808594 C 94.09375 2.808594 95.335938 3.039062 96.703125 3.503906 C 97.863281 3.917969 98.710938 4.519531 99.664062 5.339844 C 100.109375 5.722656 100.824219 6.191406 101.390625 5.875 C 102.054688 5.511719 101.855469 4.519531 101.511719 3.972656 C 100.660156 2.621094 99.109375 1.960938 97.753906 1.476562 C 96.109375 0.886719 94.371094 0.648438 92.644531 0.648438 C 90.148438 0.648438 87.910156 1.144531 85.914062 2.125 C 85.847656 2.160156 85.785156 2.191406 85.71875 2.222656 C 85.644531 2.261719 85.570312 2.300781 85.5 2.339844 C 84.132812 3.054688 82.933594 3.964844 81.910156 5.082031 C 81.703125 5.308594 81.503906 5.546875 81.3125 5.78125 C 80.390625 6.898438 79.644531 8.171875 79.066406 9.605469 C 78.320312 11.453125 77.949219 13.480469 77.949219 15.691406 C 77.949219 15.792969 77.949219 15.898438 77.953125 16 C 77.953125 16.101562 77.949219 16.203125 77.949219 16.308594 C 77.949219 18.519531 78.320312 20.546875 79.066406 22.394531 C 79.644531 23.832031 80.394531 25.101562 81.3125 26.214844 C 81.503906 26.457031 81.703125 26.691406 81.910156 26.917969 C 82.933594 28.035156 84.128906 28.945312 85.5 29.660156 C 85.574219 29.699219 85.644531 29.738281 85.71875 29.777344 C 85.785156 29.808594 85.847656 29.839844 85.914062 29.875 C 87.90625 30.859375 90.148438 31.351562 92.644531 31.351562 C 94.371094 31.351562 96.109375 31.113281 97.753906 30.523438 C 99.109375 30.039062 100.660156 29.378906 101.511719 28.027344 C 101.859375 27.476562 102.054688 26.488281 101.390625 26.125 Z M 101.390625 26.125 "/>
<path style=" stroke:none;fill-rule:nonzero;fill:rgb(23.529412%,69.01961%,47.058824%);fill-opacity:1;" d="M 115.929688 0.25 L 104.796875 29.777344 C 104.757812 29.875 104.488281 30.605469 104.746094 31.171875 C 104.832031 31.363281 105.019531 31.617188 105.410156 31.714844 C 105.488281 31.734375 105.574219 31.75 105.667969 31.75 C 105.773438 31.75 105.890625 31.730469 106.015625 31.664062 C 106.175781 31.582031 106.324219 31.445312 106.441406 31.269531 C 106.613281 31.015625 106.714844 30.714844 106.800781 30.449219 L 106.824219 30.378906 C 106.957031 29.945312 107.109375 29.523438 107.273438 29.117188 L 107.738281 27.882812 C 108.625 27.917969 110.144531 27.9375 112.265625 27.9375 L 117.363281 27.9375 L 118.933594 31.679688 L 129.433594 31.679688 L 115.9375 0.25 Z M 116.453125 25.734375 L 111.390625 25.734375 C 110.554688 25.734375 109.609375 25.6875 108.574219 25.601562 L 112.222656 15.582031 Z M 116.453125 25.734375 "/>
</g>
</svg>
