<svg width="32" height="30" viewBox="0 0 32 30" fill="none" xmlns="http://www.w3.org/2000/svg">
<path d="M22.5389 23.9135C22.1731 24.1927 21.7945 24.4529 21.4031 24.6909C21.7945 24.4561 22.1731 24.1959 22.5389 23.9135Z" fill="#3CB078"/>
<path d="M20.2673 25.3036C20.5143 25.1893 20.755 25.0656 20.9924 24.9291C20.8512 25.0053 20.7165 25.0782 20.5721 25.1481L20.2673 25.3036Z" fill="#3CB078"/>
<path d="M23.4949 16.2243C24.668 16.2243 25.6189 15.2838 25.6189 14.1236C25.6189 12.9634 24.668 12.0228 23.4949 12.0228C22.3219 12.0228 21.3709 12.9634 21.3709 14.1236C21.3709 15.2838 22.3219 16.2243 23.4949 16.2243Z" fill="#3CB078"/>
<path d="M19.5486 9.09702C20.7217 9.09702 21.6726 8.15647 21.6726 6.99625C21.6726 5.83604 20.7217 4.89549 19.5486 4.89549C18.3756 4.89549 17.4246 5.83604 17.4246 6.99625C17.4246 8.15647 18.3756 9.09702 19.5486 9.09702Z" fill="#3CB078"/>
<path d="M19.5486 23.4851C20.7217 23.4851 21.6726 22.5445 21.6726 21.3843C21.6726 20.2241 20.7217 19.2835 19.5486 19.2835C18.3756 19.2835 17.4246 20.2241 17.4246 21.3843C17.4246 22.5445 18.3756 23.4851 19.5486 23.4851Z" fill="#3CB078"/>
<path d="M6.50951 16.2243C7.68255 16.2243 8.63351 15.2838 8.63351 14.1236C8.63351 12.9634 7.68255 12.0228 6.50951 12.0228C5.33646 12.0228 4.38552 12.9634 4.38552 14.1236C4.38552 15.2838 5.33646 16.2243 6.50951 16.2243Z" fill="#3CB078"/>
<path d="M10.8119 23.4851C11.9849 23.4851 12.9359 22.5445 12.9359 21.3843C12.9359 20.2241 11.9849 19.2835 10.8119 19.2835C9.63885 19.2835 8.68791 20.2241 8.68791 21.3843C8.68791 22.5445 9.63885 23.4851 10.8119 23.4851Z" fill="#3CB078"/>
<path d="M10.8119 9.09702C11.9849 9.09702 12.9359 8.15647 12.9359 6.99625C12.9359 5.83604 11.9849 4.89549 10.8119 4.89549C9.63885 4.89549 8.68791 5.83604 8.68791 6.99625C8.68791 8.15647 9.63885 9.09702 10.8119 9.09702Z" fill="#3CB078"/>
<path d="M22.8917 26.6078C23.2061 26.4174 23.5109 26.2111 23.8061 25.989C23.5077 26.2047 23.2029 26.4142 22.8917 26.6078Z" fill="#3CB078"/>
<path d="M15.0792 28.8576C17.0331 28.8576 18.9325 28.4768 20.6875 27.7533C21.8297 29.2257 23.3377 30 25.096 30H31.4262L31.5 23.4724H26.6809C26.6264 23.4565 26.5622 23.4407 26.4884 23.4185C26.6103 23.2693 26.7291 23.117 26.8414 22.9647C27.8135 21.6573 28.5482 20.207 29.0263 18.6521C30.5984 13.562 29.2252 8.0626 25.4392 4.28631L25.3911 4.23553C24.3099 3.16611 23.0778 2.27757 21.7271 1.5953C16.077 -1.27024 9.25905 -0.207164 4.76402 4.23553C-0.921341 9.86189 -0.921341 19.0107 4.76402 24.6339C7.52008 27.3566 11.1809 28.8576 15.0792 28.8576ZM29.0359 25.881L29.0167 27.5914H25.096C24.2393 27.5914 23.5174 27.2677 22.8949 26.614L22.8917 26.6109C23.2062 26.4141 23.511 26.2078 23.8062 25.9921C23.9345 25.8969 24.0628 25.7985 24.188 25.7001C24.2329 25.6684 24.2778 25.6335 24.3163 25.5986C24.435 25.5002 24.5537 25.4018 24.6692 25.3003C24.6724 25.3034 24.6724 25.3003 24.6724 25.3003C25.4713 25.6842 26.1932 25.8366 26.2991 25.8588L26.421 25.8842H29.0359V25.881ZM6.48698 5.93645C8.82914 3.6199 11.9285 2.40768 15.0728 2.40768C16.9529 2.40768 18.8555 2.84243 20.617 3.73414C21.7335 4.299 22.7538 5.03205 23.6489 5.91741L23.6938 5.96184C25.9911 8.24665 27.2263 11.2962 27.2263 14.422C27.2263 15.5961 27.0531 16.783 26.6938 17.9444C26.2991 19.2392 25.6863 20.445 24.8778 21.5335C24.5377 21.9905 24.1527 22.4347 23.7259 22.86C23.7067 22.8822 23.6874 22.9012 23.665 22.9234C23.6554 22.9329 23.6457 22.9425 23.6361 22.9488C23.527 23.0567 23.4179 23.1614 23.3056 23.2661C23.2768 23.2947 23.2511 23.3137 23.2254 23.3391C23.1324 23.4248 23.0329 23.5073 22.9367 23.5898C22.8147 23.6914 22.6928 23.7929 22.5677 23.8881C22.5549 23.9008 22.5452 23.9072 22.5356 23.9167C22.1698 24.1991 21.7913 24.4593 21.3998 24.6942C21.2619 24.7767 21.1271 24.8528 20.9891 24.9322C20.7517 25.0686 20.5111 25.1924 20.264 25.3066C20.2608 25.3098 20.2544 25.313 20.248 25.313C18.6534 26.0587 16.8919 26.4554 15.076 26.4554C11.829 26.4554 8.78101 25.2019 6.48376 22.9329C1.75131 18.2427 1.75131 10.6235 6.48698 5.93645Z" fill="#3CB078"/>
</svg>
