<svg width="31" height="30" viewBox="0 0 31 30" fill="none" xmlns="http://www.w3.org/2000/svg">
<path d="M15.8437 0C8.30238 0 0.5 5.54959 0.5 14.8405C0.5 23.7666 6.81856 30 15.8734 30C18.7452 30 22.3639 28.8099 23.7783 27.406L22.0036 25.6405C21.1576 26.4822 18.2297 27.5014 15.8734 27.5014C8.17679 27.5014 3.01156 22.4121 3.01156 14.8373C3.01156 7.11123 9.53834 2.49205 15.847 2.49205C22.7968 2.49205 27.9917 8.75178 27.9917 14.3474C27.9917 17.3688 27.2515 18.9962 26.6335 19.8312C26.0155 20.6597 25.2125 21.1167 24.3731 21.1167C23.537 21.1167 22.6414 20.6203 22.6414 19.6964V8.97863H20.1332V10.4778C18.8146 8.94904 16.8549 7.98247 14.6738 7.98247C10.7016 7.98247 7.46628 11.1945 7.46628 15.1496C7.46628 19.1014 10.6983 22.32 14.6738 22.32C16.8549 22.32 18.8179 21.3468 20.1365 19.8148C20.1993 21.9551 22.0367 23.6153 24.3731 23.6153C26.0056 23.6153 27.5654 22.7803 28.6494 21.3173C29.8754 19.6636 30.5 17.3195 30.5 14.3507C30.4967 7.56164 24.4789 0 15.8437 0ZM14.6705 19.8247C12.0796 19.8247 9.97455 17.7271 9.97455 15.1529C9.97455 12.5753 12.083 10.4811 14.6705 10.4811C17.2614 10.4811 19.3665 12.5753 19.3665 15.1529C19.3665 17.7304 17.2581 19.8247 14.6705 19.8247Z" fill="#3CB078"/>
</svg>
