<svg width="34" height="30" viewBox="0 0 34 30" fill="none" xmlns="http://www.w3.org/2000/svg">
<path d="M33.3219 27.0973C32.5569 25.8476 31.6368 24.68 30.5848 23.6238L30.5156 23.5484C29.0976 22.1413 27.485 20.9704 25.7141 20.0684C25.4932 19.9569 25.269 19.8486 25.0447 19.7404C25.0876 19.701 25.1305 19.6584 25.17 19.619C25.5954 19.1959 25.9846 18.7466 26.3176 18.2939C27.0827 17.2542 27.6664 16.0997 28.0456 14.8566C29.2888 10.819 28.2105 6.45669 25.2426 3.44899L25.17 3.37355C24.3159 2.52733 23.3398 1.81887 22.2681 1.27112C17.7931 -1.01171 12.3948 -0.165487 8.83327 3.37355C4.33192 7.85065 4.33192 15.1386 8.83656 19.6125C8.87614 19.6518 8.91901 19.6945 8.96188 19.7338C6.9338 20.6653 5.10358 21.9412 3.49101 23.5418C2.41266 24.6111 1.46622 25.8083 0.681374 27.0907L0.5 27.3892V30H33.5V27.3859L33.3219 27.0973ZM10.6074 5.14143C12.3519 3.40635 14.657 2.49781 16.9984 2.49781C18.3999 2.49781 19.8179 2.82581 21.1304 3.49491C21.9548 3.91146 22.7001 4.44937 23.3596 5.09879L23.4256 5.16767C25.7801 7.51938 26.6375 10.9567 25.6581 14.1383V14.1416C25.3613 15.1091 24.9062 16.0111 24.306 16.8278C24.0422 17.182 23.7388 17.5297 23.4058 17.8675C22.9474 18.3235 22.4428 18.7302 21.902 19.0746C21.2227 19.5108 20.5005 19.8453 19.7519 20.0782C17.7337 20.7178 15.5375 20.6358 13.5688 19.8257C13.5688 19.8257 13.5687 19.8224 13.5655 19.8224C13.1664 19.6617 12.774 19.4682 12.3981 19.2451C12.3024 19.1861 12.2068 19.127 12.1145 19.068C11.5802 18.7302 11.0757 18.3235 10.614 17.8675C7.08219 14.358 7.08219 8.64768 10.6074 5.14143ZM3.39867 27.5204C3.95269 26.7365 4.57924 25.9952 5.26516 25.3097C6.99645 23.591 9.01794 22.302 11.2868 21.482C11.3362 21.5115 11.3824 21.5378 11.4351 21.564C11.4648 21.5804 11.4912 21.5935 11.5176 21.6067C11.6297 21.6657 11.7385 21.7247 11.854 21.7805C12.1046 21.9051 12.3552 22.0167 12.6124 22.1216C12.741 22.1741 12.8696 22.2233 12.9982 22.2725C13.1302 22.3217 13.2621 22.3643 13.3907 22.4102C13.5226 22.4529 13.6545 22.4955 13.7864 22.5316C13.9183 22.5677 14.0502 22.607 14.1854 22.6366C14.314 22.6694 14.4426 22.6989 14.5712 22.7284C14.5811 22.7317 14.5943 22.735 14.6075 22.735C14.7065 22.7612 14.8087 22.7776 14.9076 22.7973C14.9571 22.8071 15.0065 22.817 15.0626 22.8268C15.1714 22.8465 15.2803 22.8596 15.3924 22.876C15.5276 22.8957 15.6661 22.9121 15.798 22.9252C15.8837 22.935 15.9695 22.9449 16.0585 22.9514C16.1344 22.958 16.2069 22.9646 16.2762 22.9678C16.4015 22.9777 16.5235 22.9842 16.6488 22.9875C16.7708 22.9908 16.8961 22.9941 17.0181 22.9941C17.1402 22.9941 17.2655 22.9908 17.3875 22.9875C17.5128 22.9842 17.6348 22.9777 17.7568 22.9678C17.836 22.9646 17.9085 22.958 17.9844 22.9482C18.0701 22.9449 18.1525 22.935 18.2383 22.9252C18.3735 22.9121 18.512 22.8957 18.6439 22.876C18.7494 22.8596 18.8582 22.8465 18.9671 22.8268C19.0264 22.817 19.0858 22.8071 19.1451 22.7973C19.254 22.7743 19.3628 22.7546 19.4749 22.7284C19.6002 22.7022 19.7255 22.6726 19.8476 22.6398C19.9828 22.6103 20.1147 22.571 20.2466 22.5349C20.3785 22.4988 20.5104 22.4562 20.6423 22.4135C20.7742 22.3709 20.9028 22.325 21.0314 22.2758C21.1633 22.2299 21.2919 22.1807 21.4206 22.1249C21.6745 22.0199 21.9284 21.9084 22.179 21.7838C22.301 21.7215 22.4263 21.6591 22.5484 21.5903C22.6143 21.5575 22.6803 21.5214 22.7429 21.4853C23.3761 21.7149 23.9993 21.9839 24.5995 22.2922C26.1198 23.0662 27.5147 24.0765 28.7414 25.29L28.8041 25.3556C29.4768 26.0313 30.0902 26.7562 30.631 27.5237H3.39867V27.5204Z" fill="#3CB078"/>
</svg>
