<svg width="31" height="38" viewBox="0 0 31 38" fill="none" xmlns="http://www.w3.org/2000/svg">
<path d="M29.955 33.2097C30.2586 33.508 30.4622 33.9605 30.5502 34.4297C30.6457 34.939 30.6086 35.4873 30.397 35.9057C30.0957 36.5023 29.6357 36.9019 29.0937 37.0084C29.0936 37.0084 29.0935 37.0084 29.0935 37.0085L29.0742 36.9103C28.6508 36.9944 28.0514 37 27.8956 37C27.8809 37 27.8644 36.9981 27.8644 36.9981L29.955 33.2097ZM29.955 33.2097L29.9597 33.2049L29.8774 33.1353C29.2528 32.6071 28.5296 32.6336 28.0294 32.6522L28.0286 32.6523C27.9457 32.6559 27.8647 32.6578 27.7838 32.6578H27.7835C27.1896 32.6597 26.5958 32.6615 26.0003 32.6615H23.4132V27.839L23.4256 27.8326L23.4241 27.7697L23.4132 27.3126V27.3114V25.8557C23.4168 23.3946 23.415 22.7371 23.4132 22.5451V8.83063V8.73063H23.3132H14.0099L14.0046 5.12253C14.5703 5.05026 15.2248 5.01158 15.9116 5.01158C16.9809 5.01158 18.1288 5.20923 19.3265 5.60066L19.3266 5.60068C19.7593 5.74171 20.1797 5.96699 20.6335 6.21014L20.6646 6.22682L20.665 6.227L20.7544 6.27539L20.755 6.27568C20.8127 6.30642 20.871 6.33891 20.9312 6.37246C20.9542 6.38525 20.9774 6.3982 21.001 6.41126L21.0125 6.41774C21.6364 6.76706 22.4503 7.22283 23.3877 7.03644L23.3879 7.03639C24.0387 6.9053 24.6107 6.46729 24.8778 5.88543L24.7869 5.84371M29.955 33.2097L27.8596 37.0981H26.8013H24.083H12.374H12.274V36.9981V29.7224C11.2479 29.5414 10.2427 29.2622 9.26547 28.8795L9.26537 28.8795C7.42237 28.1557 5.82499 27.1266 4.51502 25.8179L4.51482 25.8177C1.78299 23.0732 0.4 19.4957 0.4 15.1874C0.4 13.1051 0.790997 11.1578 1.56511 9.40298C2.33665 7.64986 3.4187 6.12538 4.78187 4.86981C7.64164 2.23385 11.2722 0.9 15.567 0.9C16.8804 0.9 18.1286 1.02952 19.2782 1.28152L19.2782 1.28153C19.9206 1.42261 20.5645 1.61066 21.1917 1.83812L21.1918 1.83816C21.8116 2.06377 22.4007 2.3234 22.9422 2.6116L22.8952 2.69988M22.8952 2.69988L22.942 2.6115C23.4574 2.88438 23.9673 3.17016 24.4091 3.59748L24.4093 3.59761C24.6906 3.87061 24.8929 4.20348 24.9914 4.56191L24.9915 4.56221C25.1114 5.00358 25.0725 5.4629 24.8777 5.88557L24.7869 5.84371M22.8952 2.69988C23.4103 2.9726 23.9089 3.2528 24.3396 3.66936C24.6091 3.93088 24.8015 4.24844 24.895 4.58842C25.0087 5.00685 24.972 5.44209 24.7869 5.84371M22.8952 2.69988C22.3582 2.41407 21.7735 2.15629 21.1576 1.93213C20.5344 1.7061 19.8947 1.5193 19.2568 1.3792C18.1149 1.12889 16.8739 1 15.567 1C11.2944 1 7.68891 2.32628 4.84964 4.94334C3.49691 6.18929 2.42279 7.70237 1.65661 9.44334C0.88859 11.1843 0.5 13.1177 0.5 15.1874C0.5 19.4726 1.87473 23.0237 4.58569 25.7472L23.3682 6.93836C23.9895 6.8132 24.5339 6.39477 24.7869 5.84371M19.7606 25.0453L19.7605 25.0453C19.0514 25.2598 18.3218 25.4161 17.5903 25.5083M19.7606 25.0453L15.4534 25.5473C15.0104 25.5473 14.5237 25.5143 14.0009 25.4513V25.552M19.7606 25.0453C20.4432 24.8383 21.1056 24.5264 21.6863 24.1862V25.8443C21.6863 25.8553 21.6859 25.8862 21.6852 25.933C21.6829 26.091 21.6781 26.4307 21.6788 26.8004C21.0871 27.1126 20.5362 27.3557 20.1536 27.4709C18.5322 27.9592 16.8006 28.2063 15.0098 28.2063C14.6717 28.2063 14.335 28.1924 14.0009 28.1672M19.7606 25.0453L14.0009 28.1672M17.5903 25.5083L17.5778 25.4091L17.5905 25.5083C17.5904 25.5083 17.5904 25.5083 17.5903 25.5083ZM17.5903 25.5083C16.8697 25.6003 16.1506 25.6473 15.4534 25.6473C15.009 25.6473 14.5223 25.6144 14.0009 25.552M14.0009 25.552V28.1672M14.0009 25.552C13.9677 25.5481 13.9343 25.544 13.9009 25.5398L14.0009 28.1672M28.8591 35.1078L28.8585 35.1074C28.8672 35.0883 28.8754 35.0473 28.8763 34.984C28.8771 34.9236 28.8713 34.8529 28.8598 34.7819C28.8483 34.7108 28.8315 34.6419 28.8116 34.585C28.7923 34.5298 28.7731 34.4947 28.759 34.4776C28.7159 34.4434 28.6491 34.4202 28.538 34.4094C28.423 34.3982 28.2764 34.4016 28.0862 34.4081C28.0862 34.4081 28.0861 34.4082 28.086 34.4082L28.0852 34.4082C27.9871 34.4119 27.8869 34.4157 27.7881 34.4157C27.192 34.4194 26.596 34.4194 26.0003 34.4194H21.7863H21.6863V34.3194V28.7491C21.3008 28.9262 20.9454 29.0668 20.6456 29.1568M28.8591 35.1078L20.6169 29.061M28.8591 35.1078C28.8258 35.1729 28.7919 35.2218 28.7656 35.255C28.7539 35.2698 28.7438 35.2813 28.7361 35.2896C28.5035 35.33 28.0916 35.344 27.8718 35.344H26.8031L14.0027 35.3421V29.9284M28.8591 35.1078L13.9027 29.9215M20.6456 29.1568L20.6169 29.061M20.6456 29.1568C20.6456 29.1568 20.6456 29.1568 20.6456 29.1568L20.6169 29.061M20.6456 29.1568C18.8634 29.6921 16.9675 29.9643 15.0116 29.9643C14.6727 29.9643 14.3372 29.9504 14.0027 29.9284M20.6169 29.061C18.8444 29.5934 16.9583 29.8643 15.0116 29.8643C14.6732 29.8643 14.3378 29.8503 14.0027 29.8282V29.9284M14.0027 29.9284C13.9693 29.9262 13.936 29.9239 13.9027 29.9215M13.9027 29.9215V29.8213V29.9215ZM28.0369 32.8521C28.5184 32.8342 29.1311 32.8167 29.6725 33.2273L27.7841 32.8578C27.8678 32.8578 27.9515 32.8559 28.0369 32.8521ZM17.3764 23.7707L17.3762 23.7707C16.7279 23.8542 16.0796 23.895 15.4534 23.895C15.0294 23.895 14.5518 23.8602 14.0282 23.7917L14.012 10.4885H21.6863V22.0962C21.0823 22.5537 20.1846 23.088 19.268 23.367C18.6521 23.554 18.0161 23.6892 17.3764 23.7707ZM12.274 8.83063V27.9404C11.5107 27.7893 10.7608 27.5742 10.028 27.2964L10.0292 27.2952L9.88831 27.24C8.2652 26.604 6.86578 25.7035 5.72701 24.5671C3.33961 22.1692 2.12687 19.0165 2.12687 15.1874C2.12687 13.3506 2.4691 11.6459 3.13938 10.1206C3.81408 8.58972 4.75564 7.26184 5.93838 6.17129C8.46733 3.84044 11.703 2.65604 15.5634 2.65604C16.7558 2.65604 17.8831 2.77126 18.9109 2.99741C19.4804 3.12351 20.0517 3.28855 20.6084 3.49064C21.1542 3.68902 21.6686 3.91692 22.139 4.16677L22.1391 4.16682C22.5566 4.388 22.9419 4.60434 23.218 4.87138L23.2181 4.8715C23.2784 4.92959 23.3141 4.98873 23.3243 5.02945L23.3243 5.02946L23.325 5.03198C23.3286 5.04459 23.3308 5.05704 23.3299 5.07211C23.3291 5.0873 23.3249 5.10938 23.3106 5.14003L23.3104 5.14036C23.2964 5.1707 23.2642 5.20812 23.215 5.2422C23.1667 5.27563 23.1089 5.30106 23.052 5.3122L23.0518 5.31223C22.9015 5.34193 22.7161 5.30254 22.5007 5.21517C22.2879 5.12883 22.0617 5.00249 21.832 4.8742L21.8304 4.8733C21.8302 4.87322 21.8301 4.87314 21.8299 4.87306C21.7376 4.82034 21.6452 4.7695 21.5564 4.72238L21.4688 4.67586L21.4684 4.67568L21.4265 4.65324C20.9385 4.39175 20.4268 4.11757 19.8525 3.92926L19.8214 4.02428L19.8525 3.92926C18.4875 3.48185 17.1609 3.25554 15.9098 3.25554C14.8109 3.25554 13.7642 3.34739 12.9636 3.51737L12.3533 3.64624L12.2739 3.66302L12.274 3.74423L12.2812 8.73063H12.274V8.83063ZM21.6863 28.639C21.7194 28.6237 21.7527 28.608 21.7863 28.5922V28.7027L21.6863 28.639Z" fill="#3CB078" stroke="#3CB078" stroke-width="0.2"/>
</svg>
