<?xml version="1.0" encoding="utf-8"?>
<!-- Generator: Adobe Illustrator 24.3.0, SVG Export Plug-In . SVG Version: 6.00 Build 0)  -->
<svg version="1.1" id="Capa_1" xmlns="http://www.w3.org/2000/svg" xmlns:xlink="http://www.w3.org/1999/xlink" x="0px" y="0px"
	 viewBox="0 0 24 30" style="enable-background:new 0 0 24 30;" xml:space="preserve">
<style type="text/css">
	.st0{fill:#207437;}
</style>
<g id="surface1">
	<g>
		<path class="st0" d="M22.1,30H8.5V0H18l0.2,26.4h3.9c1.2,0,1.9,0.9,1.9,1.8C24,29.1,23.3,30,22.1,30z M10,28.5h12.1
			c0.4,0,0.4-0.2,0.4-0.3c0-0.1-0.1-0.3-0.4-0.3h-5.4L16.5,1.5H10V28.5z"/>
	</g>
	<g>
		<path class="st0" d="M13.4,22.1c-1.4,0-3-0.3-4.6-0.8l0.4-1.4c2.1,0.7,5.3,1.2,8.1-0.2l0.6,1.3C16.6,21.7,15,22.1,13.4,22.1z"/>
	</g>
	<g>
		<path class="st0" d="M13.4,24.8c-2.4,0-5.3-0.5-7.7-1.7c-2.7-1.3-5.9-4-5.8-8.9c0-2.8,1.3-5.2,3.9-7c2.5-1.8,5.7-2.6,9.4-2.7
			c1.5,0,3,0.2,4.4,0.5l-0.3,1.4C16.1,6.1,14.8,6,13.4,6l0,0C9.9,6,7,6.8,4.8,8.4s-3.3,3.5-3.3,5.8c-0.1,4.2,2.6,6.4,4.9,7.6
			c4.1,2,9.2,1.8,10.3,0.9l0.9,1.2C16.9,24.5,15.3,24.8,13.4,24.8z"/>
	</g>
	<g>
		<path class="st0" d="M17.3,9.7c-2.8-1.4-6-0.8-8.1-0.2L8.8,8.1c3.4-1.1,6.6-1,9.2,0.2L17.3,9.7z"/>
	</g>
</g>
</svg>
